<?xml version="1.0" encoding="UTF-8"?>
<svg id="a" data-name="图层 1" xmlns="http://www.w3.org/2000/svg" viewBox="0 0 141.73 141.73">
  <polygon points="120.49 70.86 127.49 52.49 107.57 70.85 127.45 89.24 120.49 70.86" fill="#f18a24"/>
  <polygon points="111 41.69 105.88 22.72 100.55 49.28 127.44 52.47 111 41.69" fill="#f18a24"/>
  <polygon points="86.19 23.67 70.89 11.34 82.19 35.96 105.82 22.73 86.19 23.67" fill="#f18a24"/>
  <polygon points="55.53 23.68 35.9 22.69 59.51 35.97 70.85 11.37 55.53 23.68" fill="#f18a24"/>
  <polygon points="30.72 41.71 14.26 52.45 41.16 49.31 35.89 22.74 30.72 41.71" fill="#f18a24"/>
  <polygon points="21.25 70.87 14.24 89.24 34.17 70.89 14.28 52.49 21.25 70.87" fill="#f18a24"/>
  <polygon points="30.73 100.04 35.86 119.01 41.19 92.45 14.29 89.26 30.73 100.04" fill="#f18a24"/>
  <polygon points="55.54 118.06 70.84 130.39 59.54 105.78 35.91 119.01 55.54 118.06" fill="#f18a24"/>
  <polygon points="86.21 118.05 105.84 119.04 82.23 105.76 70.88 130.36 86.21 118.05" fill="#f18a24"/>
  <polygon points="111.01 100.03 127.47 89.28 100.57 92.42 105.85 118.99 111.01 100.03" fill="#f18a24"/>
  <g>
    <path d="M72.16,67.06c-2.1-.72-4.38.4-5.1,2.51s.41,4.38,2.51,5.1c2.1.72,4.38-.41,5.09-2.51.72-2.1-.4-4.38-2.51-5.09ZM72.16,67.06c-2.1-.72-4.38.4-5.1,2.51s.41,4.38,2.51,5.1c2.1.72,4.38-.41,5.09-2.51.72-2.1-.4-4.38-2.51-5.09ZM72.16,67.06c-2.1-.72-4.38.4-5.1,2.51s.41,4.38,2.51,5.1c2.1.72,4.38-.41,5.09-2.51.72-2.1-.4-4.38-2.51-5.09ZM72.16,67.06c-2.1-.72-4.38.4-5.1,2.51s.41,4.38,2.51,5.1c2.1.72,4.38-.41,5.09-2.51.72-2.1-.4-4.38-2.51-5.09ZM72.16,67.06c-2.1-.72-4.38.4-5.1,2.51s.41,4.38,2.51,5.1c2.1.72,4.38-.41,5.09-2.51.72-2.1-.4-4.38-2.51-5.09ZM72.16,67.06c-2.1-.72-4.38.4-5.1,2.51s.41,4.38,2.51,5.1c2.1.72,4.38-.41,5.09-2.51.72-2.1-.4-4.38-2.51-5.09ZM89.25,70.93l-7.95-3.41,4.48-7.41-8.43,1.91-.73-8.62-5.7,6.51-5.66-6.54-.78,8.61-8.43-1.97,4.43,7.43-7.98,3.36,7.95,3.41-4.48,7.41,8.44-1.92.73,8.63,5.7-6.51,5.66,6.54.79-8.61,8.42,1.96-4.43-7.43,7.97-3.35ZM77.49,73.11c-1.24,3.66-5.22,5.61-8.87,4.37-3.66-1.24-5.61-5.21-4.37-8.87,1.24-3.65,5.21-5.6,8.87-4.37,3.65,1.24,5.6,5.22,4.37,8.87ZM72.16,67.06c-2.1-.72-4.38.4-5.1,2.51s.41,4.38,2.51,5.1c2.1.72,4.38-.41,5.09-2.51.72-2.1-.4-4.38-2.51-5.09ZM72.16,67.06c-2.1-.72-4.38.4-5.1,2.51s.41,4.38,2.51,5.1c2.1.72,4.38-.41,5.09-2.51.72-2.1-.4-4.38-2.51-5.09ZM72.16,67.06c-2.1-.72-4.38.4-5.1,2.51s.41,4.38,2.51,5.1c2.1.72,4.38-.41,5.09-2.51.72-2.1-.4-4.38-2.51-5.09ZM72.16,67.06c-2.1-.72-4.38.4-5.1,2.51s.41,4.38,2.51,5.1c2.1.72,4.38-.41,5.09-2.51.72-2.1-.4-4.38-2.51-5.09ZM72.16,67.06c-2.1-.72-4.38.4-5.1,2.51s.41,4.38,2.51,5.1c2.1.72,4.38-.41,5.09-2.51.72-2.1-.4-4.38-2.51-5.09ZM72.16,67.06c-2.1-.72-4.38.4-5.1,2.51s.41,4.38,2.51,5.1c2.1.72,4.38-.41,5.09-2.51.72-2.1-.4-4.38-2.51-5.09ZM72.16,67.06c-2.1-.72-4.38.4-5.1,2.51s.41,4.38,2.51,5.1c2.1.72,4.38-.41,5.09-2.51.72-2.1-.4-4.38-2.51-5.09ZM72.16,67.06c-2.1-.72-4.38.4-5.1,2.51s.41,4.38,2.51,5.1c2.1.72,4.38-.41,5.09-2.51.72-2.1-.4-4.38-2.51-5.09ZM72.16,67.06c-2.1-.72-4.38.4-5.1,2.51s.41,4.38,2.51,5.1c2.1.72,4.38-.41,5.09-2.51.72-2.1-.4-4.38-2.51-5.09ZM72.16,67.06c-2.1-.72-4.38.4-5.1,2.51s.41,4.38,2.51,5.1c2.1.72,4.38-.41,5.09-2.51.72-2.1-.4-4.38-2.51-5.09ZM72.16,67.06c-2.1-.72-4.38.4-5.1,2.51s.41,4.38,2.51,5.1c2.1.72,4.38-.41,5.09-2.51.72-2.1-.4-4.38-2.51-5.09ZM72.16,67.06c-2.1-.72-4.38.4-5.1,2.51s.41,4.38,2.51,5.1c2.1.72,4.38-.41,5.09-2.51.72-2.1-.4-4.38-2.51-5.09ZM72.16,67.06c-2.1-.72-4.38.4-5.1,2.51s.41,4.38,2.51,5.1c2.1.72,4.38-.41,5.09-2.51.72-2.1-.4-4.38-2.51-5.09ZM89.25,70.93l-7.95-3.41,4.48-7.41-8.43,1.91-.73-8.62-5.7,6.51-5.66-6.54-.78,8.61-8.43-1.97,4.43,7.43-7.98,3.36,7.95,3.41-4.48,7.41,8.44-1.92.73,8.63,5.7-6.51,5.66,6.54.79-8.61,8.42,1.96-4.43-7.43,7.97-3.35ZM77.49,73.11c-1.24,3.66-5.22,5.61-8.87,4.37-3.66-1.24-5.61-5.21-4.37-8.87,1.24-3.65,5.21-5.6,8.87-4.37,3.65,1.24,5.6,5.22,4.37,8.87ZM72.16,67.06c-2.1-.72-4.38.4-5.1,2.51s.41,4.38,2.51,5.1c2.1.72,4.38-.41,5.09-2.51.72-2.1-.4-4.38-2.51-5.09ZM72.16,67.06c-2.1-.72-4.38.4-5.1,2.51s.41,4.38,2.51,5.1c2.1.72,4.38-.41,5.09-2.51.72-2.1-.4-4.38-2.51-5.09ZM72.16,67.06c-2.1-.72-4.38.4-5.1,2.51s.41,4.38,2.51,5.1c2.1.72,4.38-.41,5.09-2.51.72-2.1-.4-4.38-2.51-5.09ZM72.16,67.06c-2.1-.72-4.38.4-5.1,2.51s.41,4.38,2.51,5.1c2.1.72,4.38-.41,5.09-2.51.72-2.1-.4-4.38-2.51-5.09ZM72.16,67.06c-2.1-.72-4.38.4-5.1,2.51s.41,4.38,2.51,5.1c2.1.72,4.38-.41,5.09-2.51.72-2.1-.4-4.38-2.51-5.09ZM72.16,67.06c-2.1-.72-4.38.4-5.1,2.51s.41,4.38,2.51,5.1c2.1.72,4.38-.41,5.09-2.51.72-2.1-.4-4.38-2.51-5.09ZM72.16,67.06c-2.1-.72-4.38.4-5.1,2.51s.41,4.38,2.51,5.1c2.1.72,4.38-.41,5.09-2.51.72-2.1-.4-4.38-2.51-5.09ZM72.16,67.06c-2.1-.72-4.38.4-5.1,2.51s.41,4.38,2.51,5.1c2.1.72,4.38-.41,5.09-2.51.72-2.1-.4-4.38-2.51-5.09ZM72.16,67.06c-2.1-.72-4.38.4-5.1,2.51s.41,4.38,2.51,5.1c2.1.72,4.38-.41,5.09-2.51.72-2.1-.4-4.38-2.51-5.09ZM72.16,67.06c-2.1-.72-4.38.4-5.1,2.51s.41,4.38,2.51,5.1c2.1.72,4.38-.41,5.09-2.51.72-2.1-.4-4.38-2.51-5.09ZM72.16,67.06c-2.1-.72-4.38.4-5.1,2.51s.41,4.38,2.51,5.1c2.1.72,4.38-.41,5.09-2.51.72-2.1-.4-4.38-2.51-5.09ZM72.16,67.06c-2.1-.72-4.38.4-5.1,2.51s.41,4.38,2.51,5.1c2.1.72,4.38-.41,5.09-2.51.72-2.1-.4-4.38-2.51-5.09ZM72.16,67.06c-2.1-.72-4.38.4-5.1,2.51s.41,4.38,2.51,5.1c2.1.72,4.38-.41,5.09-2.51.72-2.1-.4-4.38-2.51-5.09ZM89.25,70.93l-7.95-3.41,4.48-7.41-8.43,1.91-.73-8.62-5.7,6.51-5.66-6.54-.78,8.61-8.43-1.97,4.43,7.43-7.98,3.36,7.95,3.41-4.48,7.41,8.44-1.92.73,8.63,5.7-6.51,5.66,6.54.79-8.61,8.42,1.96-4.43-7.43,7.97-3.35ZM77.49,73.11c-1.24,3.66-5.22,5.61-8.87,4.37-3.66-1.24-5.61-5.21-4.37-8.87,1.24-3.65,5.21-5.6,8.87-4.37,3.65,1.24,5.6,5.22,4.37,8.87ZM72.16,67.06c-2.1-.72-4.38.4-5.1,2.51s.41,4.38,2.51,5.1c2.1.72,4.38-.41,5.09-2.51.72-2.1-.4-4.38-2.51-5.09ZM72.16,67.06c-2.1-.72-4.38.4-5.1,2.51s.41,4.38,2.51,5.1c2.1.72,4.38-.41,5.09-2.51.72-2.1-.4-4.38-2.51-5.09ZM72.16,67.06c-2.1-.72-4.38.4-5.1,2.51s.41,4.38,2.51,5.1c2.1.72,4.38-.41,5.09-2.51.72-2.1-.4-4.38-2.51-5.09ZM72.16,67.06c-2.1-.72-4.38.4-5.1,2.51s.41,4.38,2.51,5.1c2.1.72,4.38-.41,5.09-2.51.72-2.1-.4-4.38-2.51-5.09ZM72.16,67.06c-2.1-.72-4.38.4-5.1,2.51s.41,4.38,2.51,5.1c2.1.72,4.38-.41,5.09-2.51.72-2.1-.4-4.38-2.51-5.09ZM72.16,67.06c-2.1-.72-4.38.4-5.1,2.51s.41,4.38,2.51,5.1c2.1.72,4.38-.41,5.09-2.51.72-2.1-.4-4.38-2.51-5.09ZM72.16,67.06c-2.1-.72-4.38.4-5.1,2.51s.41,4.38,2.51,5.1c2.1.72,4.38-.41,5.09-2.51.72-2.1-.4-4.38-2.51-5.09ZM72.16,67.06c-2.1-.72-4.38.4-5.1,2.51s.41,4.38,2.51,5.1c2.1.72,4.38-.41,5.09-2.51.72-2.1-.4-4.38-2.51-5.09ZM72.16,67.06c-2.1-.72-4.38.4-5.1,2.51s.41,4.38,2.51,5.1c2.1.72,4.38-.41,5.09-2.51.72-2.1-.4-4.38-2.51-5.09ZM72.16,67.06c-2.1-.72-4.38.4-5.1,2.51s.41,4.38,2.51,5.1c2.1.72,4.38-.41,5.09-2.51.72-2.1-.4-4.38-2.51-5.09ZM72.16,67.06c-2.1-.72-4.38.4-5.1,2.51s.41,4.38,2.51,5.1c2.1.72,4.38-.41,5.09-2.51.72-2.1-.4-4.38-2.51-5.09ZM72.16,67.06c-2.1-.72-4.38.4-5.1,2.51s.41,4.38,2.51,5.1c2.1.72,4.38-.41,5.09-2.51.72-2.1-.4-4.38-2.51-5.09ZM72.16,67.06c-2.1-.72-4.38.4-5.1,2.51s.41,4.38,2.51,5.1c2.1.72,4.38-.41,5.09-2.51.72-2.1-.4-4.38-2.51-5.09ZM89.25,70.93l-7.95-3.41,4.48-7.41-8.43,1.91-.73-8.62-5.7,6.51-5.66-6.54-.78,8.61-8.43-1.97,4.43,7.43-7.98,3.36,7.95,3.41-4.48,7.41,8.44-1.92.73,8.63,5.7-6.51,5.66,6.54.79-8.61,8.42,1.96-4.43-7.43,7.97-3.35ZM77.49,73.11c-1.24,3.66-5.22,5.61-8.87,4.37-3.66-1.24-5.61-5.21-4.37-8.87,1.24-3.65,5.21-5.6,8.87-4.37,3.65,1.24,5.6,5.22,4.37,8.87ZM72.16,67.06c-2.1-.72-4.38.4-5.1,2.51s.41,4.38,2.51,5.1c2.1.72,4.38-.41,5.09-2.51.72-2.1-.4-4.38-2.51-5.09ZM72.16,67.06c-2.1-.72-4.38.4-5.1,2.51s.41,4.38,2.51,5.1c2.1.72,4.38-.41,5.09-2.51.72-2.1-.4-4.38-2.51-5.09ZM72.16,67.06c-2.1-.72-4.38.4-5.1,2.51s.41,4.38,2.51,5.1c2.1.72,4.38-.41,5.09-2.51.72-2.1-.4-4.38-2.51-5.09ZM72.16,67.06c-2.1-.72-4.38.4-5.1,2.51s.41,4.38,2.51,5.1c2.1.72,4.38-.41,5.09-2.51.72-2.1-.4-4.38-2.51-5.09ZM72.16,67.06c-2.1-.72-4.38.4-5.1,2.51s.41,4.38,2.51,5.1c2.1.72,4.38-.41,5.09-2.51.72-2.1-.4-4.38-2.51-5.09ZM72.16,67.06c-2.1-.72-4.38.4-5.1,2.51s.41,4.38,2.51,5.1c2.1.72,4.38-.41,5.09-2.51.72-2.1-.4-4.38-2.51-5.09ZM72.16,67.06c-2.1-.72-4.38.4-5.1,2.51s.41,4.38,2.51,5.1c2.1.72,4.38-.41,5.09-2.51.72-2.1-.4-4.38-2.51-5.09ZM72.16,67.06c-2.1-.72-4.38.4-5.1,2.51s.41,4.38,2.51,5.1c2.1.72,4.38-.41,5.09-2.51.72-2.1-.4-4.38-2.51-5.09ZM72.16,67.06c-2.1-.72-4.38.4-5.1,2.51s.41,4.38,2.51,5.1c2.1.72,4.38-.41,5.09-2.51.72-2.1-.4-4.38-2.51-5.09ZM72.16,67.06c-2.1-.72-4.38.4-5.1,2.51s.41,4.38,2.51,5.1c2.1.72,4.38-.41,5.09-2.51.72-2.1-.4-4.38-2.51-5.09ZM72.16,67.06c-2.1-.72-4.38.4-5.1,2.51s.41,4.38,2.51,5.1c2.1.72,4.38-.41,5.09-2.51.72-2.1-.4-4.38-2.51-5.09ZM72.16,67.06c-2.1-.72-4.38.4-5.1,2.51s.41,4.38,2.51,5.1c2.1.72,4.38-.41,5.09-2.51.72-2.1-.4-4.38-2.51-5.09ZM72.16,67.06c-2.1-.72-4.38.4-5.1,2.51s.41,4.38,2.51,5.1c2.1.72,4.38-.41,5.09-2.51.72-2.1-.4-4.38-2.51-5.09ZM89.25,70.93l-7.95-3.41,4.48-7.41-8.43,1.91-.73-8.62-5.7,6.51-5.66-6.54-.78,8.61-8.43-1.97,4.43,7.43-7.98,3.36,7.95,3.41-4.48,7.41,8.44-1.92.73,8.63,5.7-6.51,5.66,6.54.79-8.61,8.42,1.96-4.43-7.43,7.97-3.35ZM77.49,73.11c-1.24,3.66-5.22,5.61-8.87,4.37-3.66-1.24-5.61-5.21-4.37-8.87,1.24-3.65,5.21-5.6,8.87-4.37,3.65,1.24,5.6,5.22,4.37,8.87ZM72.16,67.06c-2.1-.72-4.38.4-5.1,2.51s.41,4.38,2.51,5.1c2.1.72,4.38-.41,5.09-2.51.72-2.1-.4-4.38-2.51-5.09ZM72.16,67.06c-2.1-.72-4.38.4-5.1,2.51s.41,4.38,2.51,5.1c2.1.72,4.38-.41,5.09-2.51.72-2.1-.4-4.38-2.51-5.09ZM72.16,67.06c-2.1-.72-4.38.4-5.1,2.51s.41,4.38,2.51,5.1c2.1.72,4.38-.41,5.09-2.51.72-2.1-.4-4.38-2.51-5.09ZM72.16,67.06c-2.1-.72-4.38.4-5.1,2.51s.41,4.38,2.51,5.1c2.1.72,4.38-.41,5.09-2.51.72-2.1-.4-4.38-2.51-5.09ZM72.16,67.06c-2.1-.72-4.38.4-5.1,2.51s.41,4.38,2.51,5.1c2.1.72,4.38-.41,5.09-2.51.72-2.1-.4-4.38-2.51-5.09ZM72.16,67.06c-2.1-.72-4.38.4-5.1,2.51s.41,4.38,2.51,5.1c2.1.72,4.38-.41,5.09-2.51.72-2.1-.4-4.38-2.51-5.09ZM72.16,67.06c-2.1-.72-4.38.4-5.1,2.51s.41,4.38,2.51,5.1c2.1.72,4.38-.41,5.09-2.51.72-2.1-.4-4.38-2.51-5.09ZM72.16,67.06c-2.1-.72-4.38.4-5.1,2.51s.41,4.38,2.51,5.1c2.1.72,4.38-.41,5.09-2.51.72-2.1-.4-4.38-2.51-5.09ZM72.16,67.06c-2.1-.72-4.38.4-5.1,2.51s.41,4.38,2.51,5.1c2.1.72,4.38-.41,5.09-2.51.72-2.1-.4-4.38-2.51-5.09ZM89.25,70.93l-7.95-3.41,4.48-7.41-8.43,1.91-.73-8.62-5.7,6.51-5.66-6.54-.78,8.61-8.43-1.97,4.43,7.43-7.98,3.36,7.95,3.41-4.48,7.41,8.44-1.92.73,8.63,5.7-6.51,5.66,6.54.79-8.61,8.42,1.96-4.43-7.43,7.97-3.35ZM77.49,73.11c-1.24,3.66-5.22,5.61-8.87,4.37-3.66-1.24-5.61-5.21-4.37-8.87,1.24-3.65,5.21-5.6,8.87-4.37,3.65,1.24,5.6,5.22,4.37,8.87ZM72.16,67.06c-2.1-.72-4.38.4-5.1,2.51s.41,4.38,2.51,5.1c2.1.72,4.38-.41,5.09-2.51.72-2.1-.4-4.38-2.51-5.09ZM72.16,67.06c-2.1-.72-4.38.4-5.1,2.51s.41,4.38,2.51,5.1c2.1.72,4.38-.41,5.09-2.51.72-2.1-.4-4.38-2.51-5.09ZM72.16,67.06c-2.1-.72-4.38.4-5.1,2.51s.41,4.38,2.51,5.1c2.1.72,4.38-.41,5.09-2.51.72-2.1-.4-4.38-2.51-5.09ZM72.16,67.06c-2.1-.72-4.38.4-5.1,2.51s.41,4.38,2.51,5.1c2.1.72,4.38-.41,5.09-2.51.72-2.1-.4-4.38-2.51-5.09ZM72.16,67.06c-2.1-.72-4.38.4-5.1,2.51s.41,4.38,2.51,5.1c2.1.72,4.38-.41,5.09-2.51.72-2.1-.4-4.38-2.51-5.09ZM72.16,67.06c-2.1-.72-4.38.4-5.1,2.51s.41,4.38,2.51,5.1c2.1.72,4.38-.41,5.09-2.51.72-2.1-.4-4.38-2.51-5.09ZM72.16,67.06c-2.1-.72-4.38.4-5.1,2.51s.41,4.38,2.51,5.1c2.1.72,4.38-.41,5.09-2.51.72-2.1-.4-4.38-2.51-5.09ZM72.16,67.06c-2.1-.72-4.38.4-5.1,2.51s.41,4.38,2.51,5.1c2.1.72,4.38-.41,5.09-2.51.72-2.1-.4-4.38-2.51-5.09ZM72.16,67.06c-2.1-.72-4.38.4-5.1,2.51s.41,4.38,2.51,5.1c2.1.72,4.38-.41,5.09-2.51.72-2.1-.4-4.38-2.51-5.09ZM89.25,70.93l-7.95-3.41,4.48-7.41-8.43,1.91-.73-8.62-5.7,6.51-5.66-6.54-.78,8.61-8.43-1.97,4.43,7.43-7.98,3.36,7.95,3.41-4.48,7.41,8.44-1.92.73,8.63,5.7-6.51,5.66,6.54.79-8.61,8.42,1.96-4.43-7.43,7.97-3.35ZM77.49,73.11c-1.24,3.66-5.22,5.61-8.87,4.37-3.66-1.24-5.61-5.21-4.37-8.87,1.24-3.65,5.21-5.6,8.87-4.37,3.65,1.24,5.6,5.22,4.37,8.87ZM72.16,67.06c-2.1-.72-4.38.4-5.1,2.51s.41,4.38,2.51,5.1c2.1.72,4.38-.41,5.09-2.51.72-2.1-.4-4.38-2.51-5.09ZM72.16,67.06c-2.1-.72-4.38.4-5.1,2.51s.41,4.38,2.51,5.1c2.1.72,4.38-.41,5.09-2.51.72-2.1-.4-4.38-2.51-5.09ZM72.16,67.06c-2.1-.72-4.38.4-5.1,2.51s.41,4.38,2.51,5.1c2.1.72,4.38-.41,5.09-2.51.72-2.1-.4-4.38-2.51-5.09ZM72.16,67.06c-2.1-.72-4.38.4-5.1,2.51s.41,4.38,2.51,5.1c2.1.72,4.38-.41,5.09-2.51.72-2.1-.4-4.38-2.51-5.09ZM72.16,67.06c-2.1-.72-4.38.4-5.1,2.51s.41,4.38,2.51,5.1c2.1.72,4.38-.41,5.09-2.51.72-2.1-.4-4.38-2.51-5.09ZM89.25,70.93l-7.95-3.41,4.48-7.41-8.43,1.91-.73-8.62-5.7,6.51-5.66-6.54-.78,8.61-8.43-1.97,4.43,7.43-7.98,3.36,7.95,3.41-4.48,7.41,8.44-1.92.73,8.63,5.7-6.51,5.66,6.54.79-8.61,8.42,1.96-4.43-7.43,7.97-3.35ZM77.49,73.11c-1.24,3.66-5.22,5.61-8.87,4.37-3.66-1.24-5.61-5.21-4.37-8.87,1.24-3.65,5.21-5.6,8.87-4.37,3.65,1.24,5.6,5.22,4.37,8.87ZM72.16,67.06c-2.1-.72-4.38.4-5.1,2.51s.41,4.38,2.51,5.1c2.1.72,4.38-.41,5.09-2.51.72-2.1-.4-4.38-2.51-5.09ZM72.16,67.06c-2.1-.72-4.38.4-5.1,2.51s.41,4.38,2.51,5.1c2.1.72,4.38-.41,5.09-2.51.72-2.1-.4-4.38-2.51-5.09ZM72.16,67.06c-2.1-.72-4.38.4-5.1,2.51s.41,4.38,2.51,5.1c2.1.72,4.38-.41,5.09-2.51.72-2.1-.4-4.38-2.51-5.09ZM72.16,67.06c-2.1-.72-4.38.4-5.1,2.51s.41,4.38,2.51,5.1c2.1.72,4.38-.41,5.09-2.51.72-2.1-.4-4.38-2.51-5.09ZM72.16,67.06c-2.1-.72-4.38.4-5.1,2.51s.41,4.38,2.51,5.1c2.1.72,4.38-.41,5.09-2.51.72-2.1-.4-4.38-2.51-5.09ZM89.25,70.93l-7.95-3.41,4.48-7.41-8.43,1.91-.73-8.62-5.7,6.51-5.66-6.54-.78,8.61-8.43-1.97,4.43,7.43-7.98,3.36,7.95,3.41-4.48,7.41,8.44-1.92.73,8.63,5.7-6.51,5.66,6.54.79-8.61,8.42,1.96-4.43-7.43,7.97-3.35ZM77.49,73.11c-1.24,3.66-5.22,5.61-8.87,4.37-3.66-1.24-5.61-5.21-4.37-8.87,1.24-3.65,5.21-5.6,8.87-4.37,3.65,1.24,5.6,5.22,4.37,8.87ZM72.16,67.06c-2.1-.72-4.38.4-5.1,2.51s.41,4.38,2.51,5.1c2.1.72,4.38-.41,5.09-2.51.72-2.1-.4-4.38-2.51-5.09ZM89.25,70.93l-7.95-3.41,4.48-7.41-8.43,1.91-.73-8.62-5.7,6.51-5.66-6.54-.78,8.61-8.43-1.97,4.43,7.43-7.98,3.36,7.95,3.41-4.48,7.41,8.44-1.92.73,8.63,5.7-6.51,5.66,6.54.79-8.61,8.42,1.96-4.43-7.43,7.97-3.35ZM77.49,73.11c-1.24,3.66-5.22,5.61-8.87,4.37-3.66-1.24-5.61-5.21-4.37-8.87,1.24-3.65,5.21-5.6,8.87-4.37,3.65,1.24,5.6,5.22,4.37,8.87ZM72.16,67.06c-2.1-.72-4.38.4-5.1,2.51s.41,4.38,2.51,5.1c2.1.72,4.38-.41,5.09-2.51.72-2.1-.4-4.38-2.51-5.09ZM107.52,58.89l-14.04-19.26-22.68-7.33-22.66,7.41-13.98,19.3.04,23.84,14.04,19.26,22.68,7.32,22.66-7.4,13.97-19.3-.04-23.84ZM45.2,83.47c-2.04-.85-4.06-1.7-6.09-2.55,1.16-1.85,2.32-3.7,3.49-5.56,1.81.23,3.32,1.5,3.87,3.23.55,1.73.05,3.63-1.28,4.87ZM46.6,62.79c-.57,1.72-2.09,2.97-3.9,3.19-1.15-1.88-2.29-3.76-3.44-5.64,2.04-.82,4.06-1.63,6.1-2.44,1.33,1.24,1.81,3.17,1.24,4.89ZM71.12,37.56c1.4,1.68,2.8,3.36,4.2,5.04-.78,1.65-2.45,2.7-4.27,2.69-1.82-.02-3.47-1.08-4.24-2.73,1.43-1.66,2.87-3.34,4.3-5ZM51.49,43.77c2.12.54,4.24,1.07,6.36,1.61.34,1.79-.4,3.63-1.88,4.69-1.48,1.06-3.44,1.17-5.03.28.18-2.19.36-4.38.54-6.58ZM57.51,96.15c-2.14.5-4.28,1.01-6.42,1.52-.15-2.18-.3-4.37-.44-6.55,1.6-.87,3.57-.74,5.04.34,1.46,1.08,2.18,2.91,1.82,4.7ZM70.62,104.18c-1.41-1.68-2.81-3.36-4.21-5.04.78-1.65,2.46-2.7,4.28-2.69,1.81,0,3.47,1.07,4.23,2.72-1.43,1.67-2.87,3.34-4.29,5.01ZM60.03,85.84c-8.27-5.99-10.12-17.54-4.14-25.81,5.99-8.27,17.54-10.11,25.81-4.13,8.28,5.98,10.12,17.54,4.14,25.81-5.98,8.27-17.54,10.12-25.81,4.14ZM90.25,97.96c-2.13-.54-4.24-1.07-6.37-1.61-.34-1.8.4-3.63,1.88-4.69,1.48-1.06,3.44-1.17,5.03-.28-.18,2.19-.36,4.38-.54,6.58ZM86.05,50.27c-1.47-1.07-2.18-2.91-1.83-4.69,2.14-.5,4.29-1.01,6.42-1.52.15,2.18.3,4.36.45,6.54-1.6.87-3.57.74-5.04-.34ZM96.38,83.84c-1.33-1.25-1.81-3.17-1.24-4.9.58-1.72,2.1-2.97,3.91-3.18,1.14,1.88,2.28,3.76,3.43,5.64-2.04.82-4.06,1.62-6.09,2.44ZM99.12,66.36c-1.81-.23-3.32-1.49-3.87-3.23-.55-1.73-.05-3.63,1.29-4.86,2.03.84,4.06,1.69,6.09,2.54-1.17,1.85-2.33,3.71-3.5,5.56ZM89.25,70.93l-7.95-3.41,4.48-7.41-8.43,1.91-.73-8.62-5.7,6.51-5.66-6.54-.78,8.61-8.43-1.97,4.43,7.43-7.98,3.36,7.95,3.41-4.48,7.41,8.44-1.92.73,8.63,5.7-6.51,5.66,6.54.79-8.61,8.42,1.96-4.43-7.43,7.97-3.35ZM77.49,73.11c-1.24,3.66-5.22,5.61-8.87,4.37-3.66-1.24-5.61-5.21-4.37-8.87,1.24-3.65,5.21-5.6,8.87-4.37,3.65,1.24,5.6,5.22,4.37,8.87ZM72.16,67.06c-2.1-.72-4.38.4-5.1,2.51s.41,4.38,2.51,5.1c2.1.72,4.38-.41,5.09-2.51.72-2.1-.4-4.38-2.51-5.09ZM72.16,67.06c-2.1-.72-4.38.4-5.1,2.51s.41,4.38,2.51,5.1c2.1.72,4.38-.41,5.09-2.51.72-2.1-.4-4.38-2.51-5.09ZM72.16,67.06c-2.1-.72-4.38.4-5.1,2.51s.41,4.38,2.51,5.1c2.1.72,4.38-.41,5.09-2.51.72-2.1-.4-4.38-2.51-5.09ZM89.25,70.93l-7.95-3.41,4.48-7.41-8.43,1.91-.73-8.62-5.7,6.51-5.66-6.54-.78,8.61-8.43-1.97,4.43,7.43-7.98,3.36,7.95,3.41-4.48,7.41,8.44-1.92.73,8.63,5.7-6.51,5.66,6.54.79-8.61,8.42,1.96-4.43-7.43,7.97-3.35ZM77.49,73.11c-1.24,3.66-5.22,5.61-8.87,4.37-3.66-1.24-5.61-5.21-4.37-8.87,1.24-3.65,5.21-5.6,8.87-4.37,3.65,1.24,5.6,5.22,4.37,8.87ZM72.16,67.06c-2.1-.72-4.38.4-5.1,2.51s.41,4.38,2.51,5.1c2.1.72,4.38-.41,5.09-2.51.72-2.1-.4-4.38-2.51-5.09ZM72.16,67.06c-2.1-.72-4.38.4-5.1,2.51s.41,4.38,2.51,5.1c2.1.72,4.38-.41,5.09-2.51.72-2.1-.4-4.38-2.51-5.09ZM72.16,67.06c-2.1-.72-4.38.4-5.1,2.51s.41,4.38,2.51,5.1c2.1.72,4.38-.41,5.09-2.51.72-2.1-.4-4.38-2.51-5.09ZM89.25,70.93l-7.95-3.41,4.48-7.41-8.43,1.91-.73-8.62-5.7,6.51-5.66-6.54-.78,8.61-8.43-1.97,4.43,7.43-7.98,3.36,7.95,3.41-4.48,7.41,8.44-1.92.73,8.63,5.7-6.51,5.66,6.54.79-8.61,8.42,1.96-4.43-7.43,7.97-3.35ZM77.49,73.11c-1.24,3.66-5.22,5.61-8.87,4.37-3.66-1.24-5.61-5.21-4.37-8.87,1.24-3.65,5.21-5.6,8.87-4.37,3.65,1.24,5.6,5.22,4.37,8.87ZM72.16,67.06c-2.1-.72-4.38.4-5.1,2.51s.41,4.38,2.51,5.1c2.1.72,4.38-.41,5.09-2.51.72-2.1-.4-4.38-2.51-5.09ZM72.16,67.06c-2.1-.72-4.38.4-5.1,2.51s.41,4.38,2.51,5.1c2.1.72,4.38-.41,5.09-2.51.72-2.1-.4-4.38-2.51-5.09ZM72.16,67.06c-2.1-.72-4.38.4-5.1,2.51s.41,4.38,2.51,5.1c2.1.72,4.38-.41,5.09-2.51.72-2.1-.4-4.38-2.51-5.09ZM72.16,67.06c-2.1-.72-4.38.4-5.1,2.51s.41,4.38,2.51,5.1c2.1.72,4.38-.41,5.09-2.51.72-2.1-.4-4.38-2.51-5.09ZM72.16,67.06c-2.1-.72-4.38.4-5.1,2.51s.41,4.38,2.51,5.1c2.1.72,4.38-.41,5.09-2.51.72-2.1-.4-4.38-2.51-5.09ZM72.16,67.06c-2.1-.72-4.38.4-5.1,2.51s.41,4.38,2.51,5.1c2.1.72,4.38-.41,5.09-2.51.72-2.1-.4-4.38-2.51-5.09ZM72.16,67.06c-2.1-.72-4.38.4-5.1,2.51s.41,4.38,2.51,5.1c2.1.72,4.38-.41,5.09-2.51.72-2.1-.4-4.38-2.51-5.09ZM89.25,70.93l-7.95-3.41,4.48-7.41-8.43,1.91-.73-8.62-5.7,6.51-5.66-6.54-.78,8.61-8.43-1.97,4.43,7.43-7.98,3.36,7.95,3.41-4.48,7.41,8.44-1.92.73,8.63,5.7-6.51,5.66,6.54.79-8.61,8.42,1.96-4.43-7.43,7.97-3.35ZM77.49,73.11c-1.24,3.66-5.22,5.61-8.87,4.37-3.66-1.24-5.61-5.21-4.37-8.87,1.24-3.65,5.21-5.6,8.87-4.37,3.65,1.24,5.6,5.22,4.37,8.87ZM72.16,67.06c-2.1-.72-4.38.4-5.1,2.51s.41,4.38,2.51,5.1c2.1.72,4.38-.41,5.09-2.51.72-2.1-.4-4.38-2.51-5.09ZM72.16,67.06c-2.1-.72-4.38.4-5.1,2.51s.41,4.38,2.51,5.1c2.1.72,4.38-.41,5.09-2.51.72-2.1-.4-4.38-2.51-5.09ZM72.16,67.06c-2.1-.72-4.38.4-5.1,2.51s.41,4.38,2.51,5.1c2.1.72,4.38-.41,5.09-2.51.72-2.1-.4-4.38-2.51-5.09ZM72.16,67.06c-2.1-.72-4.38.4-5.1,2.51s.41,4.38,2.51,5.1c2.1.72,4.38-.41,5.09-2.51.72-2.1-.4-4.38-2.51-5.09ZM72.16,67.06c-2.1-.72-4.38.4-5.1,2.51s.41,4.38,2.51,5.1c2.1.72,4.38-.41,5.09-2.51.72-2.1-.4-4.38-2.51-5.09ZM72.16,67.06c-2.1-.72-4.38.4-5.1,2.51s.41,4.38,2.51,5.1c2.1.72,4.38-.41,5.09-2.51.72-2.1-.4-4.38-2.51-5.09ZM72.16,67.06c-2.1-.72-4.38.4-5.1,2.51s.41,4.38,2.51,5.1c2.1.72,4.38-.41,5.09-2.51.72-2.1-.4-4.38-2.51-5.09ZM89.25,70.93l-7.95-3.41,4.48-7.41-8.43,1.91-.73-8.62-5.7,6.51-5.66-6.54-.78,8.61-8.43-1.97,4.43,7.43-7.98,3.36,7.95,3.41-4.48,7.41,8.44-1.92.73,8.63,5.7-6.51,5.66,6.54.79-8.61,8.42,1.96-4.43-7.43,7.97-3.35ZM77.49,73.11c-1.24,3.66-5.22,5.61-8.87,4.37-3.66-1.24-5.61-5.21-4.37-8.87,1.24-3.65,5.21-5.6,8.87-4.37,3.65,1.24,5.6,5.22,4.37,8.87ZM72.16,67.06c-2.1-.72-4.38.4-5.1,2.51s.41,4.38,2.51,5.1c2.1.72,4.38-.41,5.09-2.51.72-2.1-.4-4.38-2.51-5.09ZM72.16,67.06c-2.1-.72-4.38.4-5.1,2.51s.41,4.38,2.51,5.1c2.1.72,4.38-.41,5.09-2.51.72-2.1-.4-4.38-2.51-5.09ZM72.16,67.06c-2.1-.72-4.38.4-5.1,2.51s.41,4.38,2.51,5.1c2.1.72,4.38-.41,5.09-2.51.72-2.1-.4-4.38-2.51-5.09ZM72.16,67.06c-2.1-.72-4.38.4-5.1,2.51s.41,4.38,2.51,5.1c2.1.72,4.38-.41,5.09-2.51.72-2.1-.4-4.38-2.51-5.09ZM72.16,67.06c-2.1-.72-4.38.4-5.1,2.51s.41,4.38,2.51,5.1c2.1.72,4.38-.41,5.09-2.51.72-2.1-.4-4.38-2.51-5.09ZM72.16,67.06c-2.1-.72-4.38.4-5.1,2.51s.41,4.38,2.51,5.1c2.1.72,4.38-.41,5.09-2.51.72-2.1-.4-4.38-2.51-5.09ZM72.16,67.06c-2.1-.72-4.38.4-5.1,2.51s.41,4.38,2.51,5.1c2.1.72,4.38-.41,5.09-2.51.72-2.1-.4-4.38-2.51-5.09ZM72.16,67.06c-2.1-.72-4.38.4-5.1,2.51s.41,4.38,2.51,5.1c2.1.72,4.38-.41,5.09-2.51.72-2.1-.4-4.38-2.51-5.09ZM72.16,67.06c-2.1-.72-4.38.4-5.1,2.51s.41,4.38,2.51,5.1c2.1.72,4.38-.41,5.09-2.51.72-2.1-.4-4.38-2.51-5.09ZM72.16,67.06c-2.1-.72-4.38.4-5.1,2.51s.41,4.38,2.51,5.1c2.1.72,4.38-.41,5.09-2.51.72-2.1-.4-4.38-2.51-5.09ZM72.16,67.06c-2.1-.72-4.38.4-5.1,2.51s.41,4.38,2.51,5.1c2.1.72,4.38-.41,5.09-2.51.72-2.1-.4-4.38-2.51-5.09ZM89.25,70.93l-7.95-3.41,4.48-7.41-8.43,1.91-.73-8.62-5.7,6.51-5.66-6.54-.78,8.61-8.43-1.97,4.43,7.43-7.98,3.36,7.95,3.41-4.48,7.41,8.44-1.92.73,8.63,5.7-6.51,5.66,6.54.79-8.61,8.42,1.96-4.43-7.43,7.97-3.35ZM77.49,73.11c-1.24,3.66-5.22,5.61-8.87,4.37-3.66-1.24-5.61-5.21-4.37-8.87,1.24-3.65,5.21-5.6,8.87-4.37,3.65,1.24,5.6,5.22,4.37,8.87ZM72.16,67.06c-2.1-.72-4.38.4-5.1,2.51s.41,4.38,2.51,5.1c2.1.72,4.38-.41,5.09-2.51.72-2.1-.4-4.38-2.51-5.09ZM72.16,67.06c-2.1-.72-4.38.4-5.1,2.51s.41,4.38,2.51,5.1c2.1.72,4.38-.41,5.09-2.51.72-2.1-.4-4.38-2.51-5.09ZM72.16,67.06c-2.1-.72-4.38.4-5.1,2.51s.41,4.38,2.51,5.1c2.1.72,4.38-.41,5.09-2.51.72-2.1-.4-4.38-2.51-5.09ZM72.16,67.06c-2.1-.72-4.38.4-5.1,2.51s.41,4.38,2.51,5.1c2.1.72,4.38-.41,5.09-2.51.72-2.1-.4-4.38-2.51-5.09ZM72.16,67.06c-2.1-.72-4.38.4-5.1,2.51s.41,4.38,2.51,5.1c2.1.72,4.38-.41,5.09-2.51.72-2.1-.4-4.38-2.51-5.09ZM72.16,67.06c-2.1-.72-4.38.4-5.1,2.51s.41,4.38,2.51,5.1c2.1.72,4.38-.41,5.09-2.51.72-2.1-.4-4.38-2.51-5.09ZM72.16,67.06c-2.1-.72-4.38.4-5.1,2.51s.41,4.38,2.51,5.1c2.1.72,4.38-.41,5.09-2.51.72-2.1-.4-4.38-2.51-5.09ZM72.16,67.06c-2.1-.72-4.38.4-5.1,2.51s.41,4.38,2.51,5.1c2.1.72,4.38-.41,5.09-2.51.72-2.1-.4-4.38-2.51-5.09ZM72.16,67.06c-2.1-.72-4.38.4-5.1,2.51s.41,4.38,2.51,5.1c2.1.72,4.38-.41,5.09-2.51.72-2.1-.4-4.38-2.51-5.09ZM72.16,67.06c-2.1-.72-4.38.4-5.1,2.51s.41,4.38,2.51,5.1c2.1.72,4.38-.41,5.09-2.51.72-2.1-.4-4.38-2.51-5.09ZM72.16,67.06c-2.1-.72-4.38.4-5.1,2.51s.41,4.38,2.51,5.1c2.1.72,4.38-.41,5.09-2.51.72-2.1-.4-4.38-2.51-5.09ZM89.25,70.93l-7.95-3.41,4.48-7.41-8.43,1.91-.73-8.62-5.7,6.51-5.66-6.54-.78,8.61-8.43-1.97,4.43,7.43-7.98,3.36,7.95,3.41-4.48,7.41,8.44-1.92.73,8.63,5.7-6.51,5.66,6.54.79-8.61,8.42,1.96-4.43-7.43,7.97-3.35ZM77.49,73.11c-1.24,3.66-5.22,5.61-8.87,4.37-3.66-1.24-5.61-5.21-4.37-8.87,1.24-3.65,5.21-5.6,8.87-4.37,3.65,1.24,5.6,5.22,4.37,8.87ZM72.16,67.06c-2.1-.72-4.38.4-5.1,2.51s.41,4.38,2.51,5.1c2.1.72,4.38-.41,5.09-2.51.72-2.1-.4-4.38-2.51-5.09ZM72.16,67.06c-2.1-.72-4.38.4-5.1,2.51s.41,4.38,2.51,5.1c2.1.72,4.38-.41,5.09-2.51.72-2.1-.4-4.38-2.51-5.09ZM72.16,67.06c-2.1-.72-4.38.4-5.1,2.51s.41,4.38,2.51,5.1c2.1.72,4.38-.41,5.09-2.51.72-2.1-.4-4.38-2.51-5.09ZM72.16,67.06c-2.1-.72-4.38.4-5.1,2.51s.41,4.38,2.51,5.1c2.1.72,4.38-.41,5.09-2.51.72-2.1-.4-4.38-2.51-5.09ZM72.16,67.06c-2.1-.72-4.38.4-5.1,2.51s.41,4.38,2.51,5.1c2.1.72,4.38-.41,5.09-2.51.72-2.1-.4-4.38-2.51-5.09ZM72.16,67.06c-2.1-.72-4.38.4-5.1,2.51s.41,4.38,2.51,5.1c2.1.72,4.38-.41,5.09-2.51.72-2.1-.4-4.38-2.51-5.09ZM72.16,67.06c-2.1-.72-4.38.4-5.1,2.51s.41,4.38,2.51,5.1c2.1.72,4.38-.41,5.09-2.51.72-2.1-.4-4.38-2.51-5.09ZM72.16,67.06c-2.1-.72-4.38.4-5.1,2.51s.41,4.38,2.51,5.1c2.1.72,4.38-.41,5.09-2.51.72-2.1-.4-4.38-2.51-5.09ZM72.16,67.06c-2.1-.72-4.38.4-5.1,2.51s.41,4.38,2.51,5.1c2.1.72,4.38-.41,5.09-2.51.72-2.1-.4-4.38-2.51-5.09ZM72.16,67.06c-2.1-.72-4.38.4-5.1,2.51s.41,4.38,2.51,5.1c2.1.72,4.38-.41,5.09-2.51.72-2.1-.4-4.38-2.51-5.09ZM72.16,67.06c-2.1-.72-4.38.4-5.1,2.51s.41,4.38,2.51,5.1c2.1.72,4.38-.41,5.09-2.51.72-2.1-.4-4.38-2.51-5.09ZM72.16,67.06c-2.1-.72-4.38.4-5.1,2.51s.41,4.38,2.51,5.1c2.1.72,4.38-.41,5.09-2.51.72-2.1-.4-4.38-2.51-5.09ZM72.16,67.06c-2.1-.72-4.38.4-5.1,2.51s.41,4.38,2.51,5.1c2.1.72,4.38-.41,5.09-2.51.72-2.1-.4-4.38-2.51-5.09ZM89.25,70.93l-7.95-3.41,4.48-7.41-8.43,1.91-.73-8.62-5.7,6.51-5.66-6.54-.78,8.61-8.43-1.97,4.43,7.43-7.98,3.36,7.95,3.41-4.48,7.41,8.44-1.92.73,8.63,5.7-6.51,5.66,6.54.79-8.61,8.42,1.96-4.43-7.43,7.97-3.35ZM77.49,73.11c-1.24,3.66-5.22,5.61-8.87,4.37-3.66-1.24-5.61-5.21-4.37-8.87,1.24-3.65,5.21-5.6,8.87-4.37,3.65,1.24,5.6,5.22,4.37,8.87ZM72.16,67.06c-2.1-.72-4.38.4-5.1,2.51s.41,4.38,2.51,5.1c2.1.72,4.38-.41,5.09-2.51.72-2.1-.4-4.38-2.51-5.09ZM72.16,67.06c-2.1-.72-4.38.4-5.1,2.51s.41,4.38,2.51,5.1c2.1.72,4.38-.41,5.09-2.51.72-2.1-.4-4.38-2.51-5.09ZM72.16,67.06c-2.1-.72-4.38.4-5.1,2.51s.41,4.38,2.51,5.1c2.1.72,4.38-.41,5.09-2.51.72-2.1-.4-4.38-2.51-5.09ZM72.16,67.06c-2.1-.72-4.38.4-5.1,2.51s.41,4.38,2.51,5.1c2.1.72,4.38-.41,5.09-2.51.72-2.1-.4-4.38-2.51-5.09ZM72.16,67.06c-2.1-.72-4.38.4-5.1,2.51s.41,4.38,2.51,5.1c2.1.72,4.38-.41,5.09-2.51.72-2.1-.4-4.38-2.51-5.09ZM72.16,67.06c-2.1-.72-4.38.4-5.1,2.51s.41,4.38,2.51,5.1c2.1.72,4.38-.41,5.09-2.51.72-2.1-.4-4.38-2.51-5.09ZM72.16,67.06c-2.1-.72-4.38.4-5.1,2.51s.41,4.38,2.51,5.1c2.1.72,4.38-.41,5.09-2.51.72-2.1-.4-4.38-2.51-5.09ZM72.16,67.06c-2.1-.72-4.38.4-5.1,2.51s.41,4.38,2.51,5.1c2.1.72,4.38-.41,5.09-2.51.72-2.1-.4-4.38-2.51-5.09ZM72.16,67.06c-2.1-.72-4.38.4-5.1,2.51s.41,4.38,2.51,5.1c2.1.72,4.38-.41,5.09-2.51.72-2.1-.4-4.38-2.51-5.09ZM72.16,67.06c-2.1-.72-4.38.4-5.1,2.51s.41,4.38,2.51,5.1c2.1.72,4.38-.41,5.09-2.51.72-2.1-.4-4.38-2.51-5.09ZM72.16,67.06c-2.1-.72-4.38.4-5.1,2.51s.41,4.38,2.51,5.1c2.1.72,4.38-.41,5.09-2.51.72-2.1-.4-4.38-2.51-5.09ZM72.16,67.06c-2.1-.72-4.38.4-5.1,2.51s.41,4.38,2.51,5.1c2.1.72,4.38-.41,5.09-2.51.72-2.1-.4-4.38-2.51-5.09ZM72.16,67.06c-2.1-.72-4.38.4-5.1,2.51s.41,4.38,2.51,5.1c2.1.72,4.38-.41,5.09-2.51.72-2.1-.4-4.38-2.51-5.09ZM89.25,70.93l-7.95-3.41,4.48-7.41-8.43,1.91-.73-8.62-5.7,6.51-5.66-6.54-.78,8.61-8.43-1.97,4.43,7.43-7.98,3.36,7.95,3.41-4.48,7.41,8.44-1.92.73,8.63,5.7-6.51,5.66,6.54.79-8.61,8.42,1.96-4.43-7.43,7.97-3.35ZM77.49,73.11c-1.24,3.66-5.22,5.61-8.87,4.37-3.66-1.24-5.61-5.21-4.37-8.87,1.24-3.65,5.21-5.6,8.87-4.37,3.65,1.24,5.6,5.22,4.37,8.87ZM72.16,67.06c-2.1-.72-4.38.4-5.1,2.51s.41,4.38,2.51,5.1c2.1.72,4.38-.41,5.09-2.51.72-2.1-.4-4.38-2.51-5.09ZM72.16,67.06c-2.1-.72-4.38.4-5.1,2.51s.41,4.38,2.51,5.1c2.1.72,4.38-.41,5.09-2.51.72-2.1-.4-4.38-2.51-5.09ZM72.16,67.06c-2.1-.72-4.38.4-5.1,2.51s.41,4.38,2.51,5.1c2.1.72,4.38-.41,5.09-2.51.72-2.1-.4-4.38-2.51-5.09ZM72.16,67.06c-2.1-.72-4.38.4-5.1,2.51s.41,4.38,2.51,5.1c2.1.72,4.38-.41,5.09-2.51.72-2.1-.4-4.38-2.51-5.09ZM72.16,67.06c-2.1-.72-4.38.4-5.1,2.51s.41,4.38,2.51,5.1c2.1.72,4.38-.41,5.09-2.51.72-2.1-.4-4.38-2.51-5.09ZM72.16,67.06c-2.1-.72-4.38.4-5.1,2.51s.41,4.38,2.51,5.1c2.1.72,4.38-.41,5.09-2.51.72-2.1-.4-4.38-2.51-5.09ZM72.16,67.06c-2.1-.72-4.38.4-5.1,2.51s.41,4.38,2.51,5.1c2.1.72,4.38-.41,5.09-2.51.72-2.1-.4-4.38-2.51-5.09Z" fill="#f18a24"/>
    <g>
      <path d="M74.67,72.16c-.71,2.1-2.99,3.23-5.09,2.51-2.1-.72-3.23-3-2.51-5.1s3-3.22,5.1-2.51c2.1.71,3.22,2.99,2.51,5.09Z" fill="#f18a24"/>
      <path d="M89.25,70.93l-7.95-3.41,4.48-7.41-8.43,1.91-.73-8.62-5.7,6.51-5.66-6.54-.78,8.61-8.43-1.97,4.43,7.43-7.98,3.36,7.95,3.41-4.48,7.41,8.44-1.92.73,8.63,5.7-6.51,5.66,6.54.79-8.61,8.42,1.96-4.43-7.43,7.97-3.35ZM77.49,73.11c-1.24,3.66-5.22,5.61-8.87,4.37-3.66-1.24-5.61-5.21-4.37-8.87,1.24-3.65,5.21-5.6,8.87-4.37,3.65,1.24,5.6,5.22,4.37,8.87Z" fill="#f18a24"/>
    </g>
    <g>
      <path d="M74.67,72.16c-.71,2.1-2.99,3.23-5.09,2.51-2.1-.72-3.23-3-2.51-5.1s3-3.22,5.1-2.51c2.1.71,3.22,2.99,2.51,5.09Z" fill="#f18a24"/>
      <path d="M89.25,70.93l-7.95-3.41,4.48-7.41-8.43,1.91-.73-8.62-5.7,6.51-5.66-6.54-.78,8.61-8.43-1.97,4.43,7.43-7.98,3.36,7.95,3.41-4.48,7.41,8.44-1.92.73,8.63,5.7-6.51,5.66,6.54.79-8.61,8.42,1.96-4.43-7.43,7.97-3.35ZM77.49,73.11c-1.24,3.66-5.22,5.61-8.87,4.37-3.66-1.24-5.61-5.21-4.37-8.87,1.24-3.65,5.21-5.6,8.87-4.37,3.65,1.24,5.6,5.22,4.37,8.87Z" fill="#f18a24"/>
    </g>
    <path d="M74.67,72.16c-.71,2.1-2.99,3.23-5.09,2.51-2.1-.72-3.23-3-2.51-5.1s3-3.22,5.1-2.51c2.1.71,3.22,2.99,2.51,5.09Z" fill="#f18a24"/>
    <path d="M74.67,72.16c-.71,2.1-2.99,3.23-5.09,2.51-2.1-.72-3.23-3-2.51-5.1s3-3.22,5.1-2.51c2.1.71,3.22,2.99,2.51,5.09Z" fill="#f18a24"/>
  </g>
</svg>