<?xml version="1.0" encoding="UTF-8"?>
<svg id="_图层_1" data-name="图层_1" xmlns="http://www.w3.org/2000/svg" version="1.1" viewBox="0 0 141.7 141.7">
  <!-- Generator: Adobe Illustrator 29.8.4, SVG Export Plug-In . SVG Version: 2.1.1 Build 6)  -->
  <defs>
    <style>
      .st0 {
        fill: #f18a24;
      }
    </style>
  </defs>
  <polygon class="st0" points="129.9 70.9 138.3 49 114.6 70.8 138.2 92.7 129.9 70.9"/>
  <polygon class="st0" points="118.7 36.1 112.5 13.6 106.2 45.2 138.2 49 118.7 36.1"/>
  <polygon class="st0" points="89.1 14.7 70.9 0 84.3 29.3 112.5 13.6 89.1 14.7"/>
  <polygon class="st0" points="52.6 14.7 29.2 13.5 57.3 29.3 70.9 0 52.6 14.7"/>
  <polygon class="st0" points="23.1 36.2 3.5 48.9 35.5 45.2 29.2 13.6 23.1 36.2"/>
  <polygon class="st0" points="11.8 70.9 3.5 92.7 27.2 70.9 3.5 49 11.8 70.9"/>
  <polygon class="st0" points="23.1 105.6 29.2 128.2 35.5 96.6 3.5 92.8 23.1 105.6"/>
  <polygon class="st0" points="52.6 127 70.8 141.7 57.4 112.4 29.2 128.2 52.6 127"/>
  <polygon class="st0" points="89.1 127 112.5 128.2 84.4 112.4 70.9 141.7 89.1 127"/>
  <polygon class="st0" points="118.7 105.6 138.3 92.8 106.2 96.5 112.5 128.2 118.7 105.6"/>
  <g>
    <path class="st0" d="M72.4,66.3c-2.5-.9-5.2.5-6.1,3s.5,5.2,3,6.1c2.5.9,5.2-.5,6.1-3,.9-2.5-.5-5.2-3-6.1ZM72.4,66.3c-2.5-.9-5.2.5-6.1,3s.5,5.2,3,6.1c2.5.9,5.2-.5,6.1-3,.9-2.5-.5-5.2-3-6.1ZM72.4,66.3c-2.5-.9-5.2.5-6.1,3s.5,5.2,3,6.1c2.5.9,5.2-.5,6.1-3,.9-2.5-.5-5.2-3-6.1ZM72.4,66.3c-2.5-.9-5.2.5-6.1,3s.5,5.2,3,6.1c2.5.9,5.2-.5,6.1-3,.9-2.5-.5-5.2-3-6.1ZM72.4,66.3c-2.5-.9-5.2.5-6.1,3s.5,5.2,3,6.1c2.5.9,5.2-.5,6.1-3,.9-2.5-.5-5.2-3-6.1ZM72.4,66.3c-2.5-.9-5.2.5-6.1,3s.5,5.2,3,6.1c2.5.9,5.2-.5,6.1-3,.9-2.5-.5-5.2-3-6.1ZM92.8,70.9l-9.5-4.1,5.3-8.8-10,2.3-.9-10.3-6.8,7.8-6.7-7.8-.9,10.3-10-2.3,5.3,8.9-9.5,4,9.5,4.1-5.3,8.8,10-2.3.9,10.3,6.8-7.8,6.7,7.8.9-10.3,10,2.3-5.3-8.9,9.5-4ZM78.7,73.5c-1.5,4.4-6.2,6.7-10.6,5.2-4.4-1.5-6.7-6.2-5.2-10.6,1.5-4.3,6.2-6.7,10.6-5.2,4.3,1.5,6.7,6.2,5.2,10.6ZM72.4,66.3c-2.5-.9-5.2.5-6.1,3s.5,5.2,3,6.1c2.5.9,5.2-.5,6.1-3,.9-2.5-.5-5.2-3-6.1ZM72.4,66.3c-2.5-.9-5.2.5-6.1,3s.5,5.2,3,6.1c2.5.9,5.2-.5,6.1-3,.9-2.5-.5-5.2-3-6.1ZM72.4,66.3c-2.5-.9-5.2.5-6.1,3s.5,5.2,3,6.1c2.5.9,5.2-.5,6.1-3,.9-2.5-.5-5.2-3-6.1ZM72.4,66.3c-2.5-.9-5.2.5-6.1,3s.5,5.2,3,6.1c2.5.9,5.2-.5,6.1-3,.9-2.5-.5-5.2-3-6.1ZM72.4,66.3c-2.5-.9-5.2.5-6.1,3s.5,5.2,3,6.1c2.5.9,5.2-.5,6.1-3,.9-2.5-.5-5.2-3-6.1ZM72.4,66.3c-2.5-.9-5.2.5-6.1,3s.5,5.2,3,6.1c2.5.9,5.2-.5,6.1-3,.9-2.5-.5-5.2-3-6.1ZM72.4,66.3c-2.5-.9-5.2.5-6.1,3s.5,5.2,3,6.1c2.5.9,5.2-.5,6.1-3,.9-2.5-.5-5.2-3-6.1ZM72.4,66.3c-2.5-.9-5.2.5-6.1,3s.5,5.2,3,6.1c2.5.9,5.2-.5,6.1-3,.9-2.5-.5-5.2-3-6.1ZM72.4,66.3c-2.5-.9-5.2.5-6.1,3s.5,5.2,3,6.1c2.5.9,5.2-.5,6.1-3,.9-2.5-.5-5.2-3-6.1ZM72.4,66.3c-2.5-.9-5.2.5-6.1,3s.5,5.2,3,6.1c2.5.9,5.2-.5,6.1-3,.9-2.5-.5-5.2-3-6.1ZM72.4,66.3c-2.5-.9-5.2.5-6.1,3s.5,5.2,3,6.1c2.5.9,5.2-.5,6.1-3,.9-2.5-.5-5.2-3-6.1ZM72.4,66.3c-2.5-.9-5.2.5-6.1,3s.5,5.2,3,6.1c2.5.9,5.2-.5,6.1-3,.9-2.5-.5-5.2-3-6.1ZM72.4,66.3c-2.5-.9-5.2.5-6.1,3s.5,5.2,3,6.1c2.5.9,5.2-.5,6.1-3,.9-2.5-.5-5.2-3-6.1ZM92.8,70.9l-9.5-4.1,5.3-8.8-10,2.3-.9-10.3-6.8,7.8-6.7-7.8-.9,10.3-10-2.3,5.3,8.9-9.5,4,9.5,4.1-5.3,8.8,10-2.3.9,10.3,6.8-7.8,6.7,7.8.9-10.3,10,2.3-5.3-8.9,9.5-4ZM78.7,73.5c-1.5,4.4-6.2,6.7-10.6,5.2-4.4-1.5-6.7-6.2-5.2-10.6,1.5-4.3,6.2-6.7,10.6-5.2,4.3,1.5,6.7,6.2,5.2,10.6ZM72.4,66.3c-2.5-.9-5.2.5-6.1,3s.5,5.2,3,6.1c2.5.9,5.2-.5,6.1-3,.9-2.5-.5-5.2-3-6.1ZM72.4,66.3c-2.5-.9-5.2.5-6.1,3s.5,5.2,3,6.1c2.5.9,5.2-.5,6.1-3,.9-2.5-.5-5.2-3-6.1ZM72.4,66.3c-2.5-.9-5.2.5-6.1,3s.5,5.2,3,6.1c2.5.9,5.2-.5,6.1-3,.9-2.5-.5-5.2-3-6.1ZM72.4,66.3c-2.5-.9-5.2.5-6.1,3s.5,5.2,3,6.1c2.5.9,5.2-.5,6.1-3,.9-2.5-.5-5.2-3-6.1ZM72.4,66.3c-2.5-.9-5.2.5-6.1,3s.5,5.2,3,6.1c2.5.9,5.2-.5,6.1-3,.9-2.5-.5-5.2-3-6.1ZM72.4,66.3c-2.5-.9-5.2.5-6.1,3s.5,5.2,3,6.1c2.5.9,5.2-.5,6.1-3,.9-2.5-.5-5.2-3-6.1ZM72.4,66.3c-2.5-.9-5.2.5-6.1,3s.5,5.2,3,6.1c2.5.9,5.2-.5,6.1-3,.9-2.5-.5-5.2-3-6.1ZM72.4,66.3c-2.5-.9-5.2.5-6.1,3s.5,5.2,3,6.1c2.5.9,5.2-.5,6.1-3,.9-2.5-.5-5.2-3-6.1ZM72.4,66.3c-2.5-.9-5.2.5-6.1,3s.5,5.2,3,6.1c2.5.9,5.2-.5,6.1-3,.9-2.5-.5-5.2-3-6.1ZM72.4,66.3c-2.5-.9-5.2.5-6.1,3s.5,5.2,3,6.1c2.5.9,5.2-.5,6.1-3,.9-2.5-.5-5.2-3-6.1ZM72.4,66.3c-2.5-.9-5.2.5-6.1,3s.5,5.2,3,6.1c2.5.9,5.2-.5,6.1-3,.9-2.5-.5-5.2-3-6.1ZM72.4,66.3c-2.5-.9-5.2.5-6.1,3s.5,5.2,3,6.1c2.5.9,5.2-.5,6.1-3,.9-2.5-.5-5.2-3-6.1ZM72.4,66.3c-2.5-.9-5.2.5-6.1,3s.5,5.2,3,6.1c2.5.9,5.2-.5,6.1-3,.9-2.5-.5-5.2-3-6.1ZM92.8,70.9l-9.5-4.1,5.3-8.8-10,2.3-.9-10.3-6.8,7.8-6.7-7.8-.9,10.3-10-2.3,5.3,8.9-9.5,4,9.5,4.1-5.3,8.8,10-2.3.9,10.3,6.8-7.8,6.7,7.8.9-10.3,10,2.3-5.3-8.9,9.5-4ZM78.7,73.5c-1.5,4.4-6.2,6.7-10.6,5.2-4.4-1.5-6.7-6.2-5.2-10.6,1.5-4.3,6.2-6.7,10.6-5.2,4.3,1.5,6.7,6.2,5.2,10.6ZM72.4,66.3c-2.5-.9-5.2.5-6.1,3s.5,5.2,3,6.1c2.5.9,5.2-.5,6.1-3,.9-2.5-.5-5.2-3-6.1ZM72.4,66.3c-2.5-.9-5.2.5-6.1,3s.5,5.2,3,6.1c2.5.9,5.2-.5,6.1-3,.9-2.5-.5-5.2-3-6.1ZM72.4,66.3c-2.5-.9-5.2.5-6.1,3s.5,5.2,3,6.1c2.5.9,5.2-.5,6.1-3,.9-2.5-.5-5.2-3-6.1ZM72.4,66.3c-2.5-.9-5.2.5-6.1,3s.5,5.2,3,6.1c2.5.9,5.2-.5,6.1-3,.9-2.5-.5-5.2-3-6.1ZM72.4,66.3c-2.5-.9-5.2.5-6.1,3s.5,5.2,3,6.1c2.5.9,5.2-.5,6.1-3,.9-2.5-.5-5.2-3-6.1ZM72.4,66.3c-2.5-.9-5.2.5-6.1,3s.5,5.2,3,6.1c2.5.9,5.2-.5,6.1-3,.9-2.5-.5-5.2-3-6.1ZM72.4,66.3c-2.5-.9-5.2.5-6.1,3s.5,5.2,3,6.1c2.5.9,5.2-.5,6.1-3,.9-2.5-.5-5.2-3-6.1ZM72.4,66.3c-2.5-.9-5.2.5-6.1,3s.5,5.2,3,6.1c2.5.9,5.2-.5,6.1-3,.9-2.5-.5-5.2-3-6.1ZM72.4,66.3c-2.5-.9-5.2.5-6.1,3s.5,5.2,3,6.1c2.5.9,5.2-.5,6.1-3,.9-2.5-.5-5.2-3-6.1ZM72.4,66.3c-2.5-.9-5.2.5-6.1,3s.5,5.2,3,6.1c2.5.9,5.2-.5,6.1-3,.9-2.5-.5-5.2-3-6.1ZM72.4,66.3c-2.5-.9-5.2.5-6.1,3s.5,5.2,3,6.1c2.5.9,5.2-.5,6.1-3,.9-2.5-.5-5.2-3-6.1ZM72.4,66.3c-2.5-.9-5.2.5-6.1,3s.5,5.2,3,6.1c2.5.9,5.2-.5,6.1-3,.9-2.5-.5-5.2-3-6.1ZM72.4,66.3c-2.5-.9-5.2.5-6.1,3s.5,5.2,3,6.1c2.5.9,5.2-.5,6.1-3,.9-2.5-.5-5.2-3-6.1ZM92.8,70.9l-9.5-4.1,5.3-8.8-10,2.3-.9-10.3-6.8,7.8-6.7-7.8-.9,10.3-10-2.3,5.3,8.9-9.5,4,9.5,4.1-5.3,8.8,10-2.3.9,10.3,6.8-7.8,6.7,7.8.9-10.3,10,2.3-5.3-8.9,9.5-4ZM78.7,73.5c-1.5,4.4-6.2,6.7-10.6,5.2-4.4-1.5-6.7-6.2-5.2-10.6,1.5-4.3,6.2-6.7,10.6-5.2,4.3,1.5,6.7,6.2,5.2,10.6ZM72.4,66.3c-2.5-.9-5.2.5-6.1,3s.5,5.2,3,6.1c2.5.9,5.2-.5,6.1-3,.9-2.5-.5-5.2-3-6.1ZM72.4,66.3c-2.5-.9-5.2.5-6.1,3s.5,5.2,3,6.1c2.5.9,5.2-.5,6.1-3,.9-2.5-.5-5.2-3-6.1ZM72.4,66.3c-2.5-.9-5.2.5-6.1,3s.5,5.2,3,6.1c2.5.9,5.2-.5,6.1-3,.9-2.5-.5-5.2-3-6.1ZM72.4,66.3c-2.5-.9-5.2.5-6.1,3s.5,5.2,3,6.1c2.5.9,5.2-.5,6.1-3,.9-2.5-.5-5.2-3-6.1ZM72.4,66.3c-2.5-.9-5.2.5-6.1,3s.5,5.2,3,6.1c2.5.9,5.2-.5,6.1-3,.9-2.5-.5-5.2-3-6.1ZM72.4,66.3c-2.5-.9-5.2.5-6.1,3s.5,5.2,3,6.1c2.5.9,5.2-.5,6.1-3,.9-2.5-.5-5.2-3-6.1ZM72.4,66.3c-2.5-.9-5.2.5-6.1,3s.5,5.2,3,6.1c2.5.9,5.2-.5,6.1-3,.9-2.5-.5-5.2-3-6.1ZM72.4,66.3c-2.5-.9-5.2.5-6.1,3s.5,5.2,3,6.1c2.5.9,5.2-.5,6.1-3,.9-2.5-.5-5.2-3-6.1ZM72.4,66.3c-2.5-.9-5.2.5-6.1,3s.5,5.2,3,6.1c2.5.9,5.2-.5,6.1-3,.9-2.5-.5-5.2-3-6.1ZM72.4,66.3c-2.5-.9-5.2.5-6.1,3s.5,5.2,3,6.1c2.5.9,5.2-.5,6.1-3,.9-2.5-.5-5.2-3-6.1ZM72.4,66.3c-2.5-.9-5.2.5-6.1,3s.5,5.2,3,6.1c2.5.9,5.2-.5,6.1-3,.9-2.5-.5-5.2-3-6.1ZM72.4,66.3c-2.5-.9-5.2.5-6.1,3s.5,5.2,3,6.1c2.5.9,5.2-.5,6.1-3,.9-2.5-.5-5.2-3-6.1ZM72.4,66.3c-2.5-.9-5.2.5-6.1,3s.5,5.2,3,6.1c2.5.9,5.2-.5,6.1-3,.9-2.5-.5-5.2-3-6.1ZM92.8,70.9l-9.5-4.1,5.3-8.8-10,2.3-.9-10.3-6.8,7.8-6.7-7.8-.9,10.3-10-2.3,5.3,8.9-9.5,4,9.5,4.1-5.3,8.8,10-2.3.9,10.3,6.8-7.8,6.7,7.8.9-10.3,10,2.3-5.3-8.9,9.5-4ZM78.7,73.5c-1.5,4.4-6.2,6.7-10.6,5.2-4.4-1.5-6.7-6.2-5.2-10.6,1.5-4.3,6.2-6.7,10.6-5.2,4.3,1.5,6.7,6.2,5.2,10.6ZM72.4,66.3c-2.5-.9-5.2.5-6.1,3s.5,5.2,3,6.1c2.5.9,5.2-.5,6.1-3,.9-2.5-.5-5.2-3-6.1ZM72.4,66.3c-2.5-.9-5.2.5-6.1,3s.5,5.2,3,6.1c2.5.9,5.2-.5,6.1-3,.9-2.5-.5-5.2-3-6.1ZM72.4,66.3c-2.5-.9-5.2.5-6.1,3s.5,5.2,3,6.1c2.5.9,5.2-.5,6.1-3,.9-2.5-.5-5.2-3-6.1ZM72.4,66.3c-2.5-.9-5.2.5-6.1,3s.5,5.2,3,6.1c2.5.9,5.2-.5,6.1-3,.9-2.5-.5-5.2-3-6.1ZM72.4,66.3c-2.5-.9-5.2.5-6.1,3s.5,5.2,3,6.1c2.5.9,5.2-.5,6.1-3,.9-2.5-.5-5.2-3-6.1ZM72.4,66.3c-2.5-.9-5.2.5-6.1,3s.5,5.2,3,6.1c2.5.9,5.2-.5,6.1-3,.9-2.5-.5-5.2-3-6.1ZM72.4,66.3c-2.5-.9-5.2.5-6.1,3s.5,5.2,3,6.1c2.5.9,5.2-.5,6.1-3,.9-2.5-.5-5.2-3-6.1ZM72.4,66.3c-2.5-.9-5.2.5-6.1,3s.5,5.2,3,6.1c2.5.9,5.2-.5,6.1-3,.9-2.5-.5-5.2-3-6.1ZM72.4,66.3c-2.5-.9-5.2.5-6.1,3s.5,5.2,3,6.1c2.5.9,5.2-.5,6.1-3,.9-2.5-.5-5.2-3-6.1ZM92.8,70.9l-9.5-4.1,5.3-8.8-10,2.3-.9-10.3-6.8,7.8-6.7-7.8-.9,10.3-10-2.3,5.3,8.9-9.5,4,9.5,4.1-5.3,8.8,10-2.3.9,10.3,6.8-7.8,6.7,7.8.9-10.3,10,2.3-5.3-8.9,9.5-4ZM78.7,73.5c-1.5,4.4-6.2,6.7-10.6,5.2-4.4-1.5-6.7-6.2-5.2-10.6,1.5-4.3,6.2-6.7,10.6-5.2,4.3,1.5,6.7,6.2,5.2,10.6ZM72.4,66.3c-2.5-.9-5.2.5-6.1,3s.5,5.2,3,6.1c2.5.9,5.2-.5,6.1-3,.9-2.5-.5-5.2-3-6.1ZM72.4,66.3c-2.5-.9-5.2.5-6.1,3s.5,5.2,3,6.1c2.5.9,5.2-.5,6.1-3,.9-2.5-.5-5.2-3-6.1ZM72.4,66.3c-2.5-.9-5.2.5-6.1,3s.5,5.2,3,6.1c2.5.9,5.2-.5,6.1-3,.9-2.5-.5-5.2-3-6.1ZM72.4,66.3c-2.5-.9-5.2.5-6.1,3s.5,5.2,3,6.1c2.5.9,5.2-.5,6.1-3,.9-2.5-.5-5.2-3-6.1ZM72.4,66.3c-2.5-.9-5.2.5-6.1,3s.5,5.2,3,6.1c2.5.9,5.2-.5,6.1-3,.9-2.5-.5-5.2-3-6.1ZM72.4,66.3c-2.5-.9-5.2.5-6.1,3s.5,5.2,3,6.1c2.5.9,5.2-.5,6.1-3,.9-2.5-.5-5.2-3-6.1ZM72.4,66.3c-2.5-.9-5.2.5-6.1,3s.5,5.2,3,6.1c2.5.9,5.2-.5,6.1-3,.9-2.5-.5-5.2-3-6.1ZM72.4,66.3c-2.5-.9-5.2.5-6.1,3s.5,5.2,3,6.1c2.5.9,5.2-.5,6.1-3,.9-2.5-.5-5.2-3-6.1ZM72.4,66.3c-2.5-.9-5.2.5-6.1,3s.5,5.2,3,6.1c2.5.9,5.2-.5,6.1-3,.9-2.5-.5-5.2-3-6.1ZM92.8,70.9l-9.5-4.1,5.3-8.8-10,2.3-.9-10.3-6.8,7.8-6.7-7.8-.9,10.3-10-2.3,5.3,8.9-9.5,4,9.5,4.1-5.3,8.8,10-2.3.9,10.3,6.8-7.8,6.7,7.8.9-10.3,10,2.3-5.3-8.9,9.5-4ZM78.7,73.5c-1.5,4.4-6.2,6.7-10.6,5.2-4.4-1.5-6.7-6.2-5.2-10.6,1.5-4.3,6.2-6.7,10.6-5.2,4.3,1.5,6.7,6.2,5.2,10.6ZM72.4,66.3c-2.5-.9-5.2.5-6.1,3s.5,5.2,3,6.1c2.5.9,5.2-.5,6.1-3,.9-2.5-.5-5.2-3-6.1ZM72.4,66.3c-2.5-.9-5.2.5-6.1,3s.5,5.2,3,6.1c2.5.9,5.2-.5,6.1-3,.9-2.5-.5-5.2-3-6.1ZM72.4,66.3c-2.5-.9-5.2.5-6.1,3s.5,5.2,3,6.1c2.5.9,5.2-.5,6.1-3,.9-2.5-.5-5.2-3-6.1ZM72.4,66.3c-2.5-.9-5.2.5-6.1,3s.5,5.2,3,6.1c2.5.9,5.2-.5,6.1-3,.9-2.5-.5-5.2-3-6.1ZM72.4,66.3c-2.5-.9-5.2.5-6.1,3s.5,5.2,3,6.1c2.5.9,5.2-.5,6.1-3,.9-2.5-.5-5.2-3-6.1ZM92.8,70.9l-9.5-4.1,5.3-8.8-10,2.3-.9-10.3-6.8,7.8-6.7-7.8-.9,10.3-10-2.3,5.3,8.9-9.5,4,9.5,4.1-5.3,8.8,10-2.3.9,10.3,6.8-7.8,6.7,7.8.9-10.3,10,2.3-5.3-8.9,9.5-4ZM78.7,73.5c-1.5,4.4-6.2,6.7-10.6,5.2-4.4-1.5-6.7-6.2-5.2-10.6,1.5-4.3,6.2-6.7,10.6-5.2,4.3,1.5,6.7,6.2,5.2,10.6ZM72.4,66.3c-2.5-.9-5.2.5-6.1,3s.5,5.2,3,6.1c2.5.9,5.2-.5,6.1-3,.9-2.5-.5-5.2-3-6.1ZM72.4,66.3c-2.5-.9-5.2.5-6.1,3s.5,5.2,3,6.1c2.5.9,5.2-.5,6.1-3,.9-2.5-.5-5.2-3-6.1ZM72.4,66.3c-2.5-.9-5.2.5-6.1,3s.5,5.2,3,6.1c2.5.9,5.2-.5,6.1-3,.9-2.5-.5-5.2-3-6.1ZM72.4,66.3c-2.5-.9-5.2.5-6.1,3s.5,5.2,3,6.1c2.5.9,5.2-.5,6.1-3,.9-2.5-.5-5.2-3-6.1ZM72.4,66.3c-2.5-.9-5.2.5-6.1,3s.5,5.2,3,6.1c2.5.9,5.2-.5,6.1-3,.9-2.5-.5-5.2-3-6.1ZM92.8,70.9l-9.5-4.1,5.3-8.8-10,2.3-.9-10.3-6.8,7.8-6.7-7.8-.9,10.3-10-2.3,5.3,8.9-9.5,4,9.5,4.1-5.3,8.8,10-2.3.9,10.3,6.8-7.8,6.7,7.8.9-10.3,10,2.3-5.3-8.9,9.5-4ZM78.7,73.5c-1.5,4.4-6.2,6.7-10.6,5.2-4.4-1.5-6.7-6.2-5.2-10.6,1.5-4.3,6.2-6.7,10.6-5.2,4.3,1.5,6.7,6.2,5.2,10.6ZM72.4,66.3c-2.5-.9-5.2.5-6.1,3s.5,5.2,3,6.1c2.5.9,5.2-.5,6.1-3,.9-2.5-.5-5.2-3-6.1ZM92.8,70.9l-9.5-4.1,5.3-8.8-10,2.3-.9-10.3-6.8,7.8-6.7-7.8-.9,10.3-10-2.3,5.3,8.9-9.5,4,9.5,4.1-5.3,8.8,10-2.3.9,10.3,6.8-7.8,6.7,7.8.9-10.3,10,2.3-5.3-8.9,9.5-4ZM78.7,73.5c-1.5,4.4-6.2,6.7-10.6,5.2-4.4-1.5-6.7-6.2-5.2-10.6,1.5-4.3,6.2-6.7,10.6-5.2,4.3,1.5,6.7,6.2,5.2,10.6ZM72.4,66.3c-2.5-.9-5.2.5-6.1,3s.5,5.2,3,6.1c2.5.9,5.2-.5,6.1-3,.9-2.5-.5-5.2-3-6.1ZM114.5,56.6l-16.7-22.9-27-8.7-27,8.8-16.6,23v28.4s16.8,22.9,16.8,22.9l27,8.7,27-8.8,16.6-23v-28.4ZM40.3,85.9c-2.4-1-4.8-2-7.3-3,1.4-2.2,2.8-4.4,4.2-6.6,2.1.3,4,1.8,4.6,3.8.7,2.1,0,4.3-1.5,5.8ZM42,61.2c-.7,2.1-2.5,3.5-4.6,3.8-1.4-2.2-2.7-4.5-4.1-6.7,2.4-1,4.8-1.9,7.3-2.9,1.6,1.5,2.1,3.8,1.5,5.8ZM71.2,31.2c1.7,2,3.3,4,5,6-.9,2-2.9,3.2-5.1,3.2-2.2,0-4.1-1.3-5-3.2,1.7-2,3.4-4,5.1-6ZM47.8,38.6c2.5.6,5,1.3,7.6,1.9.4,2.1-.5,4.3-2.2,5.6-1.8,1.3-4.1,1.4-6,.3.2-2.6.4-5.2.6-7.8ZM55,101c-2.6.6-5.1,1.2-7.6,1.8-.2-2.6-.4-5.2-.5-7.8,1.9-1,4.2-.9,6,.4,1.7,1.3,2.6,3.5,2.2,5.6ZM70.6,110.5c-1.7-2-3.3-4-5-6,.9-2,2.9-3.2,5.1-3.2,2.2,0,4.1,1.3,5,3.2-1.7,2-3.4,4-5.1,6ZM58,88.7c-9.8-7.1-12-20.9-4.9-30.7,7.1-9.8,20.9-12,30.7-4.9,9.9,7.1,12,20.9,4.9,30.7-7.1,9.8-20.9,12-30.7,4.9ZM93.9,103.1c-2.5-.6-5.1-1.3-7.6-1.9-.4-2.1.5-4.3,2.2-5.6,1.8-1.3,4.1-1.4,6-.3-.2,2.6-.4,5.2-.6,7.8ZM88.9,46.4c-1.7-1.3-2.6-3.5-2.2-5.6,2.6-.6,5.1-1.2,7.6-1.8.2,2.6.4,5.2.5,7.8-1.9,1-4.2.9-6-.4ZM101.2,86.3c-1.6-1.5-2.2-3.8-1.5-5.8.7-2.1,2.5-3.5,4.7-3.8,1.4,2.2,2.7,4.5,4.1,6.7-2.4,1-4.8,1.9-7.3,2.9ZM104.5,65.5c-2.1-.3-4-1.8-4.6-3.8-.7-2.1,0-4.3,1.5-5.8,2.4,1,4.8,2,7.3,3-1.4,2.2-2.8,4.4-4.2,6.6ZM92.8,70.9l-9.5-4.1,5.3-8.8-10,2.3-.9-10.3-6.8,7.8-6.7-7.8-.9,10.3-10-2.3,5.3,8.9-9.5,4,9.5,4.1-5.3,8.8,10-2.3.9,10.3,6.8-7.8,6.7,7.8.9-10.3,10,2.3-5.3-8.9,9.5-4ZM78.7,73.5c-1.5,4.4-6.2,6.7-10.6,5.2-4.4-1.5-6.7-6.2-5.2-10.6,1.5-4.3,6.2-6.7,10.6-5.2,4.3,1.5,6.7,6.2,5.2,10.6ZM72.4,66.3c-2.5-.9-5.2.5-6.1,3s.5,5.2,3,6.1c2.5.9,5.2-.5,6.1-3,.9-2.5-.5-5.2-3-6.1ZM72.4,66.3c-2.5-.9-5.2.5-6.1,3s.5,5.2,3,6.1c2.5.9,5.2-.5,6.1-3,.9-2.5-.5-5.2-3-6.1ZM72.4,66.3c-2.5-.9-5.2.5-6.1,3s.5,5.2,3,6.1c2.5.9,5.2-.5,6.1-3,.9-2.5-.5-5.2-3-6.1ZM92.8,70.9l-9.5-4.1,5.3-8.8-10,2.3-.9-10.3-6.8,7.8-6.7-7.8-.9,10.3-10-2.3,5.3,8.9-9.5,4,9.5,4.1-5.3,8.8,10-2.3.9,10.3,6.8-7.8,6.7,7.8.9-10.3,10,2.3-5.3-8.9,9.5-4ZM78.7,73.5c-1.5,4.4-6.2,6.7-10.6,5.2-4.4-1.5-6.7-6.2-5.2-10.6,1.5-4.3,6.2-6.7,10.6-5.2,4.3,1.5,6.7,6.2,5.2,10.6ZM72.4,66.3c-2.5-.9-5.2.5-6.1,3s.5,5.2,3,6.1c2.5.9,5.2-.5,6.1-3,.9-2.5-.5-5.2-3-6.1ZM72.4,66.3c-2.5-.9-5.2.5-6.1,3s.5,5.2,3,6.1c2.5.9,5.2-.5,6.1-3,.9-2.5-.5-5.2-3-6.1ZM72.4,66.3c-2.5-.9-5.2.5-6.1,3s.5,5.2,3,6.1c2.5.9,5.2-.5,6.1-3,.9-2.5-.5-5.2-3-6.1ZM92.8,70.9l-9.5-4.1,5.3-8.8-10,2.3-.9-10.3-6.8,7.8-6.7-7.8-.9,10.3-10-2.3,5.3,8.9-9.5,4,9.5,4.1-5.3,8.8,10-2.3.9,10.3,6.8-7.8,6.7,7.8.9-10.3,10,2.3-5.3-8.9,9.5-4ZM78.7,73.5c-1.5,4.4-6.2,6.7-10.6,5.2-4.4-1.5-6.7-6.2-5.2-10.6,1.5-4.3,6.2-6.7,10.6-5.2,4.3,1.5,6.7,6.2,5.2,10.6ZM72.4,66.3c-2.5-.9-5.2.5-6.1,3s.5,5.2,3,6.1c2.5.9,5.2-.5,6.1-3,.9-2.5-.5-5.2-3-6.1ZM72.4,66.3c-2.5-.9-5.2.5-6.1,3s.5,5.2,3,6.1c2.5.9,5.2-.5,6.1-3,.9-2.5-.5-5.2-3-6.1ZM72.4,66.3c-2.5-.9-5.2.5-6.1,3s.5,5.2,3,6.1c2.5.9,5.2-.5,6.1-3,.9-2.5-.5-5.2-3-6.1ZM72.4,66.3c-2.5-.9-5.2.5-6.1,3s.5,5.2,3,6.1c2.5.9,5.2-.5,6.1-3,.9-2.5-.5-5.2-3-6.1ZM72.4,66.3c-2.5-.9-5.2.5-6.1,3s.5,5.2,3,6.1c2.5.9,5.2-.5,6.1-3,.9-2.5-.5-5.2-3-6.1ZM72.4,66.3c-2.5-.9-5.2.5-6.1,3s.5,5.2,3,6.1c2.5.9,5.2-.5,6.1-3,.9-2.5-.5-5.2-3-6.1ZM72.4,66.3c-2.5-.9-5.2.5-6.1,3s.5,5.2,3,6.1c2.5.9,5.2-.5,6.1-3,.9-2.5-.5-5.2-3-6.1ZM92.8,70.9l-9.5-4.1,5.3-8.8-10,2.3-.9-10.3-6.8,7.8-6.7-7.8-.9,10.3-10-2.3,5.3,8.9-9.5,4,9.5,4.1-5.3,8.8,10-2.3.9,10.3,6.8-7.8,6.7,7.8.9-10.3,10,2.3-5.3-8.9,9.5-4ZM78.7,73.5c-1.5,4.4-6.2,6.7-10.6,5.2-4.4-1.5-6.7-6.2-5.2-10.6,1.5-4.3,6.2-6.7,10.6-5.2,4.3,1.5,6.7,6.2,5.2,10.6ZM72.4,66.3c-2.5-.9-5.2.5-6.1,3s.5,5.2,3,6.1c2.5.9,5.2-.5,6.1-3,.9-2.5-.5-5.2-3-6.1ZM72.4,66.3c-2.5-.9-5.2.5-6.1,3s.5,5.2,3,6.1c2.5.9,5.2-.5,6.1-3,.9-2.5-.5-5.2-3-6.1ZM72.4,66.3c-2.5-.9-5.2.5-6.1,3s.5,5.2,3,6.1c2.5.9,5.2-.5,6.1-3,.9-2.5-.5-5.2-3-6.1ZM72.4,66.3c-2.5-.9-5.2.5-6.1,3s.5,5.2,3,6.1c2.5.9,5.2-.5,6.1-3,.9-2.5-.5-5.2-3-6.1ZM72.4,66.3c-2.5-.9-5.2.5-6.1,3s.5,5.2,3,6.1c2.5.9,5.2-.5,6.1-3,.9-2.5-.5-5.2-3-6.1ZM72.4,66.3c-2.5-.9-5.2.5-6.1,3s.5,5.2,3,6.1c2.5.9,5.2-.5,6.1-3,.9-2.5-.5-5.2-3-6.1ZM72.4,66.3c-2.5-.9-5.2.5-6.1,3s.5,5.2,3,6.1c2.5.9,5.2-.5,6.1-3,.9-2.5-.5-5.2-3-6.1ZM92.8,70.9l-9.5-4.1,5.3-8.8-10,2.3-.9-10.3-6.8,7.8-6.7-7.8-.9,10.3-10-2.3,5.3,8.9-9.5,4,9.5,4.1-5.3,8.8,10-2.3.9,10.3,6.8-7.8,6.7,7.8.9-10.3,10,2.3-5.3-8.9,9.5-4ZM78.7,73.5c-1.5,4.4-6.2,6.7-10.6,5.2-4.4-1.5-6.7-6.2-5.2-10.6,1.5-4.3,6.2-6.7,10.6-5.2,4.3,1.5,6.7,6.2,5.2,10.6ZM72.4,66.3c-2.5-.9-5.2.5-6.1,3s.5,5.2,3,6.1c2.5.9,5.2-.5,6.1-3,.9-2.5-.5-5.2-3-6.1ZM72.4,66.3c-2.5-.9-5.2.5-6.1,3s.5,5.2,3,6.1c2.5.9,5.2-.5,6.1-3,.9-2.5-.5-5.2-3-6.1ZM72.4,66.3c-2.5-.9-5.2.5-6.1,3s.5,5.2,3,6.1c2.5.9,5.2-.5,6.1-3,.9-2.5-.5-5.2-3-6.1ZM72.4,66.3c-2.5-.9-5.2.5-6.1,3s.5,5.2,3,6.1c2.5.9,5.2-.5,6.1-3,.9-2.5-.5-5.2-3-6.1ZM72.4,66.3c-2.5-.9-5.2.5-6.1,3s.5,5.2,3,6.1c2.5.9,5.2-.5,6.1-3,.9-2.5-.5-5.2-3-6.1ZM72.4,66.3c-2.5-.9-5.2.5-6.1,3s.5,5.2,3,6.1c2.5.9,5.2-.5,6.1-3,.9-2.5-.5-5.2-3-6.1ZM72.4,66.3c-2.5-.9-5.2.5-6.1,3s.5,5.2,3,6.1c2.5.9,5.2-.5,6.1-3,.9-2.5-.5-5.2-3-6.1ZM72.4,66.3c-2.5-.9-5.2.5-6.1,3s.5,5.2,3,6.1c2.5.9,5.2-.5,6.1-3,.9-2.5-.5-5.2-3-6.1ZM72.4,66.3c-2.5-.9-5.2.5-6.1,3s.5,5.2,3,6.1c2.5.9,5.2-.5,6.1-3,.9-2.5-.5-5.2-3-6.1ZM72.4,66.3c-2.5-.9-5.2.5-6.1,3s.5,5.2,3,6.1c2.5.9,5.2-.5,6.1-3,.9-2.5-.5-5.2-3-6.1ZM72.4,66.3c-2.5-.9-5.2.5-6.1,3s.5,5.2,3,6.1c2.5.9,5.2-.5,6.1-3,.9-2.5-.5-5.2-3-6.1ZM92.8,70.9l-9.5-4.1,5.3-8.8-10,2.3-.9-10.3-6.8,7.8-6.7-7.8-.9,10.3-10-2.3,5.3,8.9-9.5,4,9.5,4.1-5.3,8.8,10-2.3.9,10.3,6.8-7.8,6.7,7.8.9-10.3,10,2.3-5.3-8.9,9.5-4ZM78.7,73.5c-1.5,4.4-6.2,6.7-10.6,5.2-4.4-1.5-6.7-6.2-5.2-10.6,1.5-4.3,6.2-6.7,10.6-5.2,4.3,1.5,6.7,6.2,5.2,10.6ZM72.4,66.3c-2.5-.9-5.2.5-6.1,3s.5,5.2,3,6.1c2.5.9,5.2-.5,6.1-3,.9-2.5-.5-5.2-3-6.1ZM72.4,66.3c-2.5-.9-5.2.5-6.1,3s.5,5.2,3,6.1c2.5.9,5.2-.5,6.1-3,.9-2.5-.5-5.2-3-6.1ZM72.4,66.3c-2.5-.9-5.2.5-6.1,3s.5,5.2,3,6.1c2.5.9,5.2-.5,6.1-3,.9-2.5-.5-5.2-3-6.1ZM72.4,66.3c-2.5-.9-5.2.5-6.1,3s.5,5.2,3,6.1c2.5.9,5.2-.5,6.1-3,.9-2.5-.5-5.2-3-6.1ZM72.4,66.3c-2.5-.9-5.2.5-6.1,3s.5,5.2,3,6.1c2.5.9,5.2-.5,6.1-3,.9-2.5-.5-5.2-3-6.1ZM72.4,66.3c-2.5-.9-5.2.5-6.1,3s.5,5.2,3,6.1c2.5.9,5.2-.5,6.1-3,.9-2.5-.5-5.2-3-6.1ZM72.4,66.3c-2.5-.9-5.2.5-6.1,3s.5,5.2,3,6.1c2.5.9,5.2-.5,6.1-3,.9-2.5-.5-5.2-3-6.1ZM72.4,66.3c-2.5-.9-5.2.5-6.1,3s.5,5.2,3,6.1c2.5.9,5.2-.5,6.1-3,.9-2.5-.5-5.2-3-6.1ZM72.4,66.3c-2.5-.9-5.2.5-6.1,3s.5,5.2,3,6.1c2.5.9,5.2-.5,6.1-3,.9-2.5-.5-5.2-3-6.1ZM72.4,66.3c-2.5-.9-5.2.5-6.1,3s.5,5.2,3,6.1c2.5.9,5.2-.5,6.1-3,.9-2.5-.5-5.2-3-6.1ZM72.4,66.3c-2.5-.9-5.2.5-6.1,3s.5,5.2,3,6.1c2.5.9,5.2-.5,6.1-3,.9-2.5-.5-5.2-3-6.1ZM92.8,70.9l-9.5-4.1,5.3-8.8-10,2.3-.9-10.3-6.8,7.8-6.7-7.8-.9,10.3-10-2.3,5.3,8.9-9.5,4,9.5,4.1-5.3,8.8,10-2.3.9,10.3,6.8-7.8,6.7,7.8.9-10.3,10,2.3-5.3-8.9,9.5-4ZM78.7,73.5c-1.5,4.4-6.2,6.7-10.6,5.2-4.4-1.5-6.7-6.2-5.2-10.6,1.5-4.3,6.2-6.7,10.6-5.2,4.3,1.5,6.7,6.2,5.2,10.6ZM72.4,66.3c-2.5-.9-5.2.5-6.1,3s.5,5.2,3,6.1c2.5.9,5.2-.5,6.1-3,.9-2.5-.5-5.2-3-6.1ZM72.4,66.3c-2.5-.9-5.2.5-6.1,3s.5,5.2,3,6.1c2.5.9,5.2-.5,6.1-3,.9-2.5-.5-5.2-3-6.1ZM72.4,66.3c-2.5-.9-5.2.5-6.1,3s.5,5.2,3,6.1c2.5.9,5.2-.5,6.1-3,.9-2.5-.5-5.2-3-6.1ZM72.4,66.3c-2.5-.9-5.2.5-6.1,3s.5,5.2,3,6.1c2.5.9,5.2-.5,6.1-3,.9-2.5-.5-5.2-3-6.1ZM72.4,66.3c-2.5-.9-5.2.5-6.1,3s.5,5.2,3,6.1c2.5.9,5.2-.5,6.1-3,.9-2.5-.5-5.2-3-6.1ZM72.4,66.3c-2.5-.9-5.2.5-6.1,3s.5,5.2,3,6.1c2.5.9,5.2-.5,6.1-3,.9-2.5-.5-5.2-3-6.1ZM72.4,66.3c-2.5-.9-5.2.5-6.1,3s.5,5.2,3,6.1c2.5.9,5.2-.5,6.1-3,.9-2.5-.5-5.2-3-6.1ZM72.4,66.3c-2.5-.9-5.2.5-6.1,3s.5,5.2,3,6.1c2.5.9,5.2-.5,6.1-3,.9-2.5-.5-5.2-3-6.1ZM72.4,66.3c-2.5-.9-5.2.5-6.1,3s.5,5.2,3,6.1c2.5.9,5.2-.5,6.1-3,.9-2.5-.5-5.2-3-6.1ZM72.4,66.3c-2.5-.9-5.2.5-6.1,3s.5,5.2,3,6.1c2.5.9,5.2-.5,6.1-3,.9-2.5-.5-5.2-3-6.1ZM72.4,66.3c-2.5-.9-5.2.5-6.1,3s.5,5.2,3,6.1c2.5.9,5.2-.5,6.1-3,.9-2.5-.5-5.2-3-6.1ZM72.4,66.3c-2.5-.9-5.2.5-6.1,3s.5,5.2,3,6.1c2.5.9,5.2-.5,6.1-3,.9-2.5-.5-5.2-3-6.1ZM72.4,66.3c-2.5-.9-5.2.5-6.1,3s.5,5.2,3,6.1c2.5.9,5.2-.5,6.1-3,.9-2.5-.5-5.2-3-6.1ZM92.8,70.9l-9.5-4.1,5.3-8.8-10,2.3-.9-10.3-6.8,7.8-6.7-7.8-.9,10.3-10-2.3,5.3,8.9-9.5,4,9.5,4.1-5.3,8.8,10-2.3.9,10.3,6.8-7.8,6.7,7.8.9-10.3,10,2.3-5.3-8.9,9.5-4ZM78.7,73.5c-1.5,4.4-6.2,6.7-10.6,5.2-4.4-1.5-6.7-6.2-5.2-10.6,1.5-4.3,6.2-6.7,10.6-5.2,4.3,1.5,6.7,6.2,5.2,10.6ZM72.4,66.3c-2.5-.9-5.2.5-6.1,3s.5,5.2,3,6.1c2.5.9,5.2-.5,6.1-3,.9-2.5-.5-5.2-3-6.1ZM72.4,66.3c-2.5-.9-5.2.5-6.1,3s.5,5.2,3,6.1c2.5.9,5.2-.5,6.1-3,.9-2.5-.5-5.2-3-6.1ZM72.4,66.3c-2.5-.9-5.2.5-6.1,3s.5,5.2,3,6.1c2.5.9,5.2-.5,6.1-3,.9-2.5-.5-5.2-3-6.1ZM72.4,66.3c-2.5-.9-5.2.5-6.1,3s.5,5.2,3,6.1c2.5.9,5.2-.5,6.1-3,.9-2.5-.5-5.2-3-6.1ZM72.4,66.3c-2.5-.9-5.2.5-6.1,3s.5,5.2,3,6.1c2.5.9,5.2-.5,6.1-3,.9-2.5-.5-5.2-3-6.1ZM72.4,66.3c-2.5-.9-5.2.5-6.1,3s.5,5.2,3,6.1c2.5.9,5.2-.5,6.1-3,.9-2.5-.5-5.2-3-6.1ZM72.4,66.3c-2.5-.9-5.2.5-6.1,3s.5,5.2,3,6.1c2.5.9,5.2-.5,6.1-3,.9-2.5-.5-5.2-3-6.1ZM72.4,66.3c-2.5-.9-5.2.5-6.1,3s.5,5.2,3,6.1c2.5.9,5.2-.5,6.1-3,.9-2.5-.5-5.2-3-6.1ZM72.4,66.3c-2.5-.9-5.2.5-6.1,3s.5,5.2,3,6.1c2.5.9,5.2-.5,6.1-3,.9-2.5-.5-5.2-3-6.1ZM72.4,66.3c-2.5-.9-5.2.5-6.1,3s.5,5.2,3,6.1c2.5.9,5.2-.5,6.1-3,.9-2.5-.5-5.2-3-6.1ZM72.4,66.3c-2.5-.9-5.2.5-6.1,3s.5,5.2,3,6.1c2.5.9,5.2-.5,6.1-3,.9-2.5-.5-5.2-3-6.1ZM72.4,66.3c-2.5-.9-5.2.5-6.1,3s.5,5.2,3,6.1c2.5.9,5.2-.5,6.1-3,.9-2.5-.5-5.2-3-6.1ZM72.4,66.3c-2.5-.9-5.2.5-6.1,3s.5,5.2,3,6.1c2.5.9,5.2-.5,6.1-3,.9-2.5-.5-5.2-3-6.1ZM92.8,70.9l-9.5-4.1,5.3-8.8-10,2.3-.9-10.3-6.8,7.8-6.7-7.8-.9,10.3-10-2.3,5.3,8.9-9.5,4,9.5,4.1-5.3,8.8,10-2.3.9,10.3,6.8-7.8,6.7,7.8.9-10.3,10,2.3-5.3-8.9,9.5-4ZM78.7,73.5c-1.5,4.4-6.2,6.7-10.6,5.2-4.4-1.5-6.7-6.2-5.2-10.6,1.5-4.3,6.2-6.7,10.6-5.2,4.3,1.5,6.7,6.2,5.2,10.6ZM72.4,66.3c-2.5-.9-5.2.5-6.1,3s.5,5.2,3,6.1c2.5.9,5.2-.5,6.1-3,.9-2.5-.5-5.2-3-6.1ZM72.4,66.3c-2.5-.9-5.2.5-6.1,3s.5,5.2,3,6.1c2.5.9,5.2-.5,6.1-3,.9-2.5-.5-5.2-3-6.1ZM72.4,66.3c-2.5-.9-5.2.5-6.1,3s.5,5.2,3,6.1c2.5.9,5.2-.5,6.1-3,.9-2.5-.5-5.2-3-6.1ZM72.4,66.3c-2.5-.9-5.2.5-6.1,3s.5,5.2,3,6.1c2.5.9,5.2-.5,6.1-3,.9-2.5-.5-5.2-3-6.1ZM72.4,66.3c-2.5-.9-5.2.5-6.1,3s.5,5.2,3,6.1c2.5.9,5.2-.5,6.1-3,.9-2.5-.5-5.2-3-6.1ZM72.4,66.3c-2.5-.9-5.2.5-6.1,3s.5,5.2,3,6.1c2.5.9,5.2-.5,6.1-3,.9-2.5-.5-5.2-3-6.1ZM72.4,66.3c-2.5-.9-5.2.5-6.1,3s.5,5.2,3,6.1c2.5.9,5.2-.5,6.1-3,.9-2.5-.5-5.2-3-6.1Z"/>
    <g>
      <path class="st0" d="M75.4,72.4c-.8,2.5-3.6,3.8-6.1,3-2.5-.9-3.8-3.6-3-6.1s3.6-3.8,6.1-3c2.5.8,3.8,3.6,3,6.1Z"/>
      <path class="st0" d="M92.8,70.9l-9.5-4.1,5.3-8.8-10,2.3-.9-10.3-6.8,7.8-6.7-7.8-.9,10.3-10-2.3,5.3,8.9-9.5,4,9.5,4.1-5.3,8.8,10-2.3.9,10.3,6.8-7.8,6.7,7.8.9-10.3,10,2.3-5.3-8.9,9.5-4ZM78.7,73.5c-1.5,4.4-6.2,6.7-10.6,5.2-4.4-1.5-6.7-6.2-5.2-10.6,1.5-4.3,6.2-6.7,10.6-5.2,4.3,1.5,6.7,6.2,5.2,10.6Z"/>
    </g>
    <g>
      <path class="st0" d="M75.4,72.4c-.8,2.5-3.6,3.8-6.1,3-2.5-.9-3.8-3.6-3-6.1s3.6-3.8,6.1-3c2.5.8,3.8,3.6,3,6.1Z"/>
      <path class="st0" d="M92.8,70.9l-9.5-4.1,5.3-8.8-10,2.3-.9-10.3-6.8,7.8-6.7-7.8-.9,10.3-10-2.3,5.3,8.9-9.5,4,9.5,4.1-5.3,8.8,10-2.3.9,10.3,6.8-7.8,6.7,7.8.9-10.3,10,2.3-5.3-8.9,9.5-4ZM78.7,73.5c-1.5,4.4-6.2,6.7-10.6,5.2-4.4-1.5-6.7-6.2-5.2-10.6,1.5-4.3,6.2-6.7,10.6-5.2,4.3,1.5,6.7,6.2,5.2,10.6Z"/>
    </g>
    <path class="st0" d="M75.4,72.4c-.8,2.5-3.6,3.8-6.1,3-2.5-.9-3.8-3.6-3-6.1s3.6-3.8,6.1-3c2.5.8,3.8,3.6,3,6.1Z"/>
    <path class="st0" d="M75.4,72.4c-.8,2.5-3.6,3.8-6.1,3-2.5-.9-3.8-3.6-3-6.1s3.6-3.8,6.1-3c2.5.8,3.8,3.6,3,6.1Z"/>
  </g>
</svg>