<?xml version="1.0" encoding="UTF-8"?>
<svg id="a" data-name="图层 1" xmlns="http://www.w3.org/2000/svg" viewBox="0 0 141.73 141.73">
  <polygon points="114.75 41.86 109.63 22.91 104.3 49.43 131.17 52.62 114.75 41.86" fill="#d3df45"/>
  <polygon points="90.01 23.74 74.73 11.42 86.01 36.01 109.62 22.8 90.01 23.74" fill="#d3df45"/>
  <polygon points="59.35 23.63 39.74 22.65 63.33 35.91 74.66 11.34 59.35 23.63" fill="#d3df45"/>
  <polygon points="34.48 41.56 18.04 52.29 44.91 49.16 39.64 22.62 34.48 41.56" fill="#d3df45"/>
  <polygon points="24.9 70.69 17.9 89.03 37.8 70.7 17.94 52.33 24.9 70.69" fill="#d3df45"/>
  <polygon points="34.27 99.88 39.39 118.83 44.71 92.3 17.85 89.12 34.27 99.88" fill="#d3df45"/>
  <polygon points="59 117.99 74.29 130.31 63 105.72 39.39 118.94 59 117.99" fill="#d3df45"/>
  <polygon points="89.66 118.11 109.27 119.09 85.69 105.83 74.36 130.4 89.66 118.11" fill="#d3df45"/>
  <polygon points="114.53 100.17 130.97 89.45 104.1 92.58 109.37 119.12 114.53 100.17" fill="#d3df45"/>
  <polygon points="124.12 71.05 131.11 52.71 111.21 71.04 131.07 89.41 124.12 71.05" fill="#d3df45"/>
  <g>
    <path d="M88.26,66.54c-2.39-7.59-10.48-11.82-18.08-9.43-7.59,2.39-11.82,10.48-9.43,18.08,2.39,7.59,10.48,11.82,18.08,9.43,7.59-2.39,11.82-10.48,9.43-18.08ZM76.46,77.08c-3.43,1.08-7.09-.83-8.18-4.26-1.08-3.43.83-7.09,4.27-8.18,3.43-1.08,7.09.83,8.17,4.27,1.08,3.43-.83,7.09-4.26,8.17ZM88.26,66.54c-2.39-7.59-10.48-11.82-18.08-9.43-7.59,2.39-11.82,10.48-9.43,18.08,2.39,7.59,10.48,11.82,18.08,9.43,7.59-2.39,11.82-10.48,9.43-18.08ZM76.46,77.08c-3.43,1.08-7.09-.83-8.18-4.26-1.08-3.43.83-7.09,4.27-8.18,3.43-1.08,7.09.83,8.17,4.27,1.08,3.43-.83,7.09-4.26,8.17ZM88.26,66.54c-2.39-7.59-10.48-11.82-18.08-9.43-7.59,2.39-11.82,10.48-9.43,18.08,2.39,7.59,10.48,11.82,18.08,9.43,7.59-2.39,11.82-10.48,9.43-18.08ZM76.46,77.08c-3.43,1.08-7.09-.83-8.18-4.26-1.08-3.43.83-7.09,4.27-8.18,3.43-1.08,7.09.83,8.17,4.27,1.08,3.43-.83,7.09-4.26,8.17ZM88.26,66.54c-2.39-7.59-10.48-11.82-18.08-9.43-7.59,2.39-11.82,10.48-9.43,18.08,2.39,7.59,10.48,11.82,18.08,9.43,7.59-2.39,11.82-10.48,9.43-18.08ZM76.46,77.08c-3.43,1.08-7.09-.83-8.18-4.26-1.08-3.43.83-7.09,4.27-8.18,3.43-1.08,7.09.83,8.17,4.27,1.08,3.43-.83,7.09-4.26,8.17ZM88.26,66.54c-2.39-7.59-10.48-11.82-18.08-9.43-7.59,2.39-11.82,10.48-9.43,18.08,2.39,7.59,10.48,11.82,18.08,9.43,7.59-2.39,11.82-10.48,9.43-18.08ZM76.46,77.08c-3.43,1.08-7.09-.83-8.18-4.26-1.08-3.43.83-7.09,4.27-8.18,3.43-1.08,7.09.83,8.17,4.27,1.08,3.43-.83,7.09-4.26,8.17ZM88.26,66.54c-2.39-7.59-10.48-11.82-18.08-9.43-7.59,2.39-11.82,10.48-9.43,18.08,2.39,7.59,10.48,11.82,18.08,9.43,7.59-2.39,11.82-10.48,9.43-18.08ZM76.46,77.08c-3.43,1.08-7.09-.83-8.18-4.26-1.08-3.43.83-7.09,4.27-8.18,3.43-1.08,7.09.83,8.17,4.27,1.08,3.43-.83,7.09-4.26,8.17ZM88.26,66.54c-2.39-7.59-10.48-11.82-18.08-9.43-7.59,2.39-11.82,10.48-9.43,18.08,2.39,7.59,10.48,11.82,18.08,9.43,7.59-2.39,11.82-10.48,9.43-18.08ZM76.46,77.08c-3.43,1.08-7.09-.83-8.18-4.26-1.08-3.43.83-7.09,4.27-8.18,3.43-1.08,7.09.83,8.17,4.27,1.08,3.43-.83,7.09-4.26,8.17ZM88.26,66.54c-2.39-7.59-10.48-11.82-18.08-9.43-7.59,2.39-11.82,10.48-9.43,18.08,2.39,7.59,10.48,11.82,18.08,9.43,7.59-2.39,11.82-10.48,9.43-18.08ZM76.46,77.08c-3.43,1.08-7.09-.83-8.18-4.26-1.08-3.43.83-7.09,4.27-8.18,3.43-1.08,7.09.83,8.17,4.27,1.08,3.43-.83,7.09-4.26,8.17ZM88.26,66.54c-2.39-7.59-10.48-11.82-18.08-9.43-7.59,2.39-11.82,10.48-9.43,18.08,2.39,7.59,10.48,11.82,18.08,9.43,7.59-2.39,11.82-10.48,9.43-18.08ZM76.46,77.08c-3.43,1.08-7.09-.83-8.18-4.26-1.08-3.43.83-7.09,4.27-8.18,3.43-1.08,7.09.83,8.17,4.27,1.08,3.43-.83,7.09-4.26,8.17ZM88.26,66.54c-2.39-7.59-10.48-11.82-18.08-9.43-7.59,2.39-11.82,10.48-9.43,18.08,2.39,7.59,10.48,11.82,18.08,9.43,7.59-2.39,11.82-10.48,9.43-18.08ZM76.46,77.08c-3.43,1.08-7.09-.83-8.18-4.26-1.08-3.43.83-7.09,4.27-8.18,3.43-1.08,7.09.83,8.17,4.27,1.08,3.43-.83,7.09-4.26,8.17ZM88.26,66.54c-2.39-7.59-10.48-11.82-18.08-9.43-7.59,2.39-11.82,10.48-9.43,18.08,2.39,7.59,10.48,11.82,18.08,9.43,7.59-2.39,11.82-10.48,9.43-18.08ZM76.46,77.08c-3.43,1.08-7.09-.83-8.18-4.26-1.08-3.43.83-7.09,4.27-8.18,3.43-1.08,7.09.83,8.17,4.27,1.08,3.43-.83,7.09-4.26,8.17ZM88.26,66.54c-2.39-7.59-10.48-11.82-18.08-9.43-7.59,2.39-11.82,10.48-9.43,18.08,2.39,7.59,10.48,11.82,18.08,9.43,7.59-2.39,11.82-10.48,9.43-18.08ZM76.46,77.08c-3.43,1.08-7.09-.83-8.18-4.26-1.08-3.43.83-7.09,4.27-8.18,3.43-1.08,7.09.83,8.17,4.27,1.08,3.43-.83,7.09-4.26,8.17ZM88.26,66.54c-2.39-7.59-10.48-11.82-18.08-9.43-7.59,2.39-11.82,10.48-9.43,18.08,2.39,7.59,10.48,11.82,18.08,9.43,7.59-2.39,11.82-10.48,9.43-18.08ZM76.46,77.08c-3.43,1.08-7.09-.83-8.18-4.26-1.08-3.43.83-7.09,4.27-8.18,3.43-1.08,7.09.83,8.17,4.27,1.08,3.43-.83,7.09-4.26,8.17ZM88.26,66.54c-2.39-7.59-10.48-11.82-18.08-9.43-7.59,2.39-11.82,10.48-9.43,18.08,2.39,7.59,10.48,11.82,18.08,9.43,7.59-2.39,11.82-10.48,9.43-18.08ZM76.46,77.08c-3.43,1.08-7.09-.83-8.18-4.26-1.08-3.43.83-7.09,4.27-8.18,3.43-1.08,7.09.83,8.17,4.27,1.08,3.43-.83,7.09-4.26,8.17ZM88.26,66.54c-2.39-7.59-10.48-11.82-18.08-9.43-7.59,2.39-11.82,10.48-9.43,18.08,2.39,7.59,10.48,11.82,18.08,9.43,7.59-2.39,11.82-10.48,9.43-18.08ZM76.46,77.08c-3.43,1.08-7.09-.83-8.18-4.26-1.08-3.43.83-7.09,4.27-8.18,3.43-1.08,7.09.83,8.17,4.27,1.08,3.43-.83,7.09-4.26,8.17ZM88.26,66.54c-2.39-7.59-10.48-11.82-18.08-9.43-7.59,2.39-11.82,10.48-9.43,18.08,2.39,7.59,10.48,11.82,18.08,9.43,7.59-2.39,11.82-10.48,9.43-18.08ZM76.46,77.08c-3.43,1.08-7.09-.83-8.18-4.26-1.08-3.43.83-7.09,4.27-8.18,3.43-1.08,7.09.83,8.17,4.27,1.08,3.43-.83,7.09-4.26,8.17ZM88.26,66.54c-2.39-7.59-10.48-11.82-18.08-9.43-7.59,2.39-11.82,10.48-9.43,18.08,2.39,7.59,10.48,11.82,18.08,9.43,7.59-2.39,11.82-10.48,9.43-18.08ZM76.46,77.08c-3.43,1.08-7.09-.83-8.18-4.26-1.08-3.43.83-7.09,4.27-8.18,3.43-1.08,7.09.83,8.17,4.27,1.08,3.43-.83,7.09-4.26,8.17ZM88.26,66.54c-2.39-7.59-10.48-11.82-18.08-9.43-7.59,2.39-11.82,10.48-9.43,18.08,2.39,7.59,10.48,11.82,18.08,9.43,7.59-2.39,11.82-10.48,9.43-18.08ZM76.46,77.08c-3.43,1.08-7.09-.83-8.18-4.26-1.08-3.43.83-7.09,4.27-8.18,3.43-1.08,7.09.83,8.17,4.27,1.08,3.43-.83,7.09-4.26,8.17ZM88.26,66.54c-2.39-7.59-10.48-11.82-18.08-9.43-7.59,2.39-11.82,10.48-9.43,18.08,2.39,7.59,10.48,11.82,18.08,9.43,7.59-2.39,11.82-10.48,9.43-18.08ZM76.46,77.08c-3.43,1.08-7.09-.83-8.18-4.26-1.08-3.43.83-7.09,4.27-8.18,3.43-1.08,7.09.83,8.17,4.27,1.08,3.43-.83,7.09-4.26,8.17ZM88.26,66.54c-2.39-7.59-10.48-11.82-18.08-9.43-7.59,2.39-11.82,10.48-9.43,18.08,2.39,7.59,10.48,11.82,18.08,9.43,7.59-2.39,11.82-10.48,9.43-18.08ZM76.46,77.08c-3.43,1.08-7.09-.83-8.18-4.26-1.08-3.43.83-7.09,4.27-8.18,3.43-1.08,7.09.83,8.17,4.27,1.08,3.43-.83,7.09-4.26,8.17ZM113.76,50.56l-7.58-10.48-4.58-6.34-7.27-2.38-12.3-4.01-7.44-2.44-7.28,2.35-12.31,3.97-7.44,2.4-4.51,6.18-7.62,10.44h0s-4.61,6.32-4.61,6.32l-.02,7.65-.02,12.93-.02,7.83,4.48,6.19,7.58,10.48,4.59,6.34,7.27,2.38,12.3,4.01,7.43,2.43,7.28-2.35h0l12.3-3.97h0l7.44-2.4,4.51-6.18,7.62-10.44h0s4.61-6.32,4.61-6.32l.02-7.66.02-12.93.02-7.82-4.48-6.19ZM43.68,54.72c1.86,1.72,2.56,4.38,1.79,6.8-.78,2.4-2.88,4.15-5.39,4.48-1.61-2.61-3.23-5.2-4.85-7.8,2.82-1.16,5.63-2.31,8.45-3.48ZM43.79,87.17c-2.84-1.16-5.67-2.31-8.51-3.46,1.59-2.59,3.19-5.19,4.78-7.78,2.53.3,4.65,2.04,5.44,4.44.79,2.4.12,5.06-1.72,6.8ZM98.7,37.43c.23,3.04.46,6.08.7,9.11-2.22,1.24-4.96,1.08-7.02-.4-2.05-1.47-3.07-4.01-2.6-6.51,2.97-.73,5.94-1.47,8.92-2.2ZM74.42,29.6c1.97,2.32,3.94,4.64,5.92,6.96-1.06,2.3-3.38,3.79-5.91,3.8-2.53,0-4.85-1.45-5.93-3.73,1.98-2.35,3.95-4.69,5.93-7.03ZM50.18,37.53c2.95.71,5.92,1.43,8.88,2.15.49,2.48-.5,5.04-2.55,6.55-2.04,1.49-4.77,1.67-6.99.46.22-3.06.45-6.11.66-9.16ZM50.32,104.31c-.23-3.04-.46-6.08-.7-9.11,2.21-1.24,4.95-1.08,7.01.4,2.06,1.47,3.07,4.01,2.61,6.5-2.97.74-5.95,1.47-8.92,2.21ZM74.59,112.14c-1.97-2.32-3.94-4.64-5.92-6.96,1.06-2.3,3.38-3.79,5.91-3.8,2.53,0,4.84,1.45,5.93,3.73-1.97,2.35-3.94,4.69-5.92,7.03ZM98.84,104.21c-2.96-.72-5.92-1.43-8.88-2.15-.49-2.49.5-5.05,2.55-6.55,2.04-1.49,4.77-1.68,6.99-.46-.23,3.05-.45,6.11-.66,9.16ZM74.46,96.85c-14.34-.03-25.96-11.68-25.93-26.03.02-14.34,11.68-25.95,26.03-25.93,14.34.02,25.95,11.68,25.93,26.03-.03,14.34-11.68,25.95-26.03,25.93ZM105.22,54.57c2.83,1.16,5.67,2.31,8.51,3.46-1.59,2.59-3.19,5.18-4.79,7.78-2.52-.3-4.65-2.04-5.44-4.44-.79-2.4-.11-5.06,1.72-6.8ZM105.34,87.02c-1.86-1.72-2.56-4.39-1.79-6.8.78-2.4,2.88-4.16,5.38-4.48,1.62,2.6,3.24,5.2,4.86,7.8-2.82,1.16-5.63,2.31-8.45,3.48ZM70.18,57.11c-7.59,2.39-11.82,10.48-9.43,18.08,2.39,7.59,10.48,11.82,18.08,9.43,7.59-2.39,11.82-10.48,9.43-18.08-2.39-7.59-10.48-11.82-18.08-9.43ZM76.46,77.08c-3.43,1.08-7.09-.83-8.18-4.26-1.08-3.43.83-7.09,4.27-8.18,3.43-1.08,7.09.83,8.17,4.27,1.08,3.43-.83,7.09-4.26,8.17ZM88.26,66.54c-2.39-7.59-10.48-11.82-18.08-9.43-7.59,2.39-11.82,10.48-9.43,18.08,2.39,7.59,10.48,11.82,18.08,9.43,7.59-2.39,11.82-10.48,9.43-18.08ZM76.46,77.08c-3.43,1.08-7.09-.83-8.18-4.26-1.08-3.43.83-7.09,4.27-8.18,3.43-1.08,7.09.83,8.17,4.27,1.08,3.43-.83,7.09-4.26,8.17ZM88.26,66.54c-2.39-7.59-10.48-11.82-18.08-9.43-7.59,2.39-11.82,10.48-9.43,18.08,2.39,7.59,10.48,11.82,18.08,9.43,7.59-2.39,11.82-10.48,9.43-18.08ZM76.46,77.08c-3.43,1.08-7.09-.83-8.18-4.26-1.08-3.43.83-7.09,4.27-8.18,3.43-1.08,7.09.83,8.17,4.27,1.08,3.43-.83,7.09-4.26,8.17ZM88.26,66.54c-2.39-7.59-10.48-11.82-18.08-9.43-7.59,2.39-11.82,10.48-9.43,18.08,2.39,7.59,10.48,11.82,18.08,9.43,7.59-2.39,11.82-10.48,9.43-18.08ZM76.46,77.08c-3.43,1.08-7.09-.83-8.18-4.26-1.08-3.43.83-7.09,4.27-8.18,3.43-1.08,7.09.83,8.17,4.27,1.08,3.43-.83,7.09-4.26,8.17ZM88.26,66.54c-2.39-7.59-10.48-11.82-18.08-9.43-7.59,2.39-11.82,10.48-9.43,18.08,2.39,7.59,10.48,11.82,18.08,9.43,7.59-2.39,11.82-10.48,9.43-18.08ZM76.46,77.08c-3.43,1.08-7.09-.83-8.18-4.26-1.08-3.43.83-7.09,4.27-8.18,3.43-1.08,7.09.83,8.17,4.27,1.08,3.43-.83,7.09-4.26,8.17ZM88.26,66.54c-2.39-7.59-10.48-11.82-18.08-9.43-7.59,2.39-11.82,10.48-9.43,18.08,2.39,7.59,10.48,11.82,18.08,9.43,7.59-2.39,11.82-10.48,9.43-18.08ZM76.46,77.08c-3.43,1.08-7.09-.83-8.18-4.26-1.08-3.43.83-7.09,4.27-8.18,3.43-1.08,7.09.83,8.17,4.27,1.08,3.43-.83,7.09-4.26,8.17ZM88.26,66.54c-2.39-7.59-10.48-11.82-18.08-9.43-7.59,2.39-11.82,10.48-9.43,18.08,2.39,7.59,10.48,11.82,18.08,9.43,7.59-2.39,11.82-10.48,9.43-18.08ZM76.46,77.08c-3.43,1.08-7.09-.83-8.18-4.26-1.08-3.43.83-7.09,4.27-8.18,3.43-1.08,7.09.83,8.17,4.27,1.08,3.43-.83,7.09-4.26,8.17ZM88.26,66.54c-2.39-7.59-10.48-11.82-18.08-9.43-7.59,2.39-11.82,10.48-9.43,18.08,2.39,7.59,10.48,11.82,18.08,9.43,7.59-2.39,11.82-10.48,9.43-18.08ZM76.46,77.08c-3.43,1.08-7.09-.83-8.18-4.26-1.08-3.43.83-7.09,4.27-8.18,3.43-1.08,7.09.83,8.17,4.27,1.08,3.43-.83,7.09-4.26,8.17ZM88.26,66.54c-2.39-7.59-10.48-11.82-18.08-9.43-7.59,2.39-11.82,10.48-9.43,18.08,2.39,7.59,10.48,11.82,18.08,9.43,7.59-2.39,11.82-10.48,9.43-18.08ZM76.46,77.08c-3.43,1.08-7.09-.83-8.18-4.26-1.08-3.43.83-7.09,4.27-8.18,3.43-1.08,7.09.83,8.17,4.27,1.08,3.43-.83,7.09-4.26,8.17ZM88.26,66.54c-2.39-7.59-10.48-11.82-18.08-9.43-7.59,2.39-11.82,10.48-9.43,18.08,2.39,7.59,10.48,11.82,18.08,9.43,7.59-2.39,11.82-10.48,9.43-18.08ZM76.46,77.08c-3.43,1.08-7.09-.83-8.18-4.26-1.08-3.43.83-7.09,4.27-8.18,3.43-1.08,7.09.83,8.17,4.27,1.08,3.43-.83,7.09-4.26,8.17ZM88.26,66.54c-2.39-7.59-10.48-11.82-18.08-9.43-7.59,2.39-11.82,10.48-9.43,18.08,2.39,7.59,10.48,11.82,18.08,9.43,7.59-2.39,11.82-10.48,9.43-18.08ZM76.46,77.08c-3.43,1.08-7.09-.83-8.18-4.26-1.08-3.43.83-7.09,4.27-8.18,3.43-1.08,7.09.83,8.17,4.27,1.08,3.43-.83,7.09-4.26,8.17ZM88.26,66.54c-2.39-7.59-10.48-11.82-18.08-9.43-7.59,2.39-11.82,10.48-9.43,18.08,2.39,7.59,10.48,11.82,18.08,9.43,7.59-2.39,11.82-10.48,9.43-18.08ZM76.46,77.08c-3.43,1.08-7.09-.83-8.18-4.26-1.08-3.43.83-7.09,4.27-8.18,3.43-1.08,7.09.83,8.17,4.27,1.08,3.43-.83,7.09-4.26,8.17ZM88.26,66.54c-2.39-7.59-10.48-11.82-18.08-9.43-7.59,2.39-11.82,10.48-9.43,18.08,2.39,7.59,10.48,11.82,18.08,9.43,7.59-2.39,11.82-10.48,9.43-18.08ZM76.46,77.08c-3.43,1.08-7.09-.83-8.18-4.26-1.08-3.43.83-7.09,4.27-8.18,3.43-1.08,7.09.83,8.17,4.27,1.08,3.43-.83,7.09-4.26,8.17ZM88.26,66.54c-2.39-7.59-10.48-11.82-18.08-9.43-7.59,2.39-11.82,10.48-9.43,18.08,2.39,7.59,10.48,11.82,18.08,9.43,7.59-2.39,11.82-10.48,9.43-18.08ZM76.46,77.08c-3.43,1.08-7.09-.83-8.18-4.26-1.08-3.43.83-7.09,4.27-8.18,3.43-1.08,7.09.83,8.17,4.27,1.08,3.43-.83,7.09-4.26,8.17ZM88.26,66.54c-2.39-7.59-10.48-11.82-18.08-9.43-7.59,2.39-11.82,10.48-9.43,18.08,2.39,7.59,10.48,11.82,18.08,9.43,7.59-2.39,11.82-10.48,9.43-18.08ZM76.46,77.08c-3.43,1.08-7.09-.83-8.18-4.26-1.08-3.43.83-7.09,4.27-8.18,3.43-1.08,7.09.83,8.17,4.27,1.08,3.43-.83,7.09-4.26,8.17ZM88.26,66.54c-2.39-7.59-10.48-11.82-18.08-9.43-7.59,2.39-11.82,10.48-9.43,18.08,2.39,7.59,10.48,11.82,18.08,9.43,7.59-2.39,11.82-10.48,9.43-18.08ZM76.46,77.08c-3.43,1.08-7.09-.83-8.18-4.26-1.08-3.43.83-7.09,4.27-8.18,3.43-1.08,7.09.83,8.17,4.27,1.08,3.43-.83,7.09-4.26,8.17ZM88.26,66.54c-2.39-7.59-10.48-11.82-18.08-9.43-7.59,2.39-11.82,10.48-9.43,18.08,2.39,7.59,10.48,11.82,18.08,9.43,7.59-2.39,11.82-10.48,9.43-18.08ZM76.46,77.08c-3.43,1.08-7.09-.83-8.18-4.26-1.08-3.43.83-7.09,4.27-8.18,3.43-1.08,7.09.83,8.17,4.27,1.08,3.43-.83,7.09-4.26,8.17ZM88.26,66.54c-2.39-7.59-10.48-11.82-18.08-9.43-7.59,2.39-11.82,10.48-9.43,18.08,2.39,7.59,10.48,11.82,18.08,9.43,7.59-2.39,11.82-10.48,9.43-18.08ZM76.46,77.08c-3.43,1.08-7.09-.83-8.18-4.26-1.08-3.43.83-7.09,4.27-8.18,3.43-1.08,7.09.83,8.17,4.27,1.08,3.43-.83,7.09-4.26,8.17ZM88.26,66.54c-2.39-7.59-10.48-11.82-18.08-9.43-7.59,2.39-11.82,10.48-9.43,18.08,2.39,7.59,10.48,11.82,18.08,9.43,7.59-2.39,11.82-10.48,9.43-18.08ZM76.46,77.08c-3.43,1.08-7.09-.83-8.18-4.26-1.08-3.43.83-7.09,4.27-8.18,3.43-1.08,7.09.83,8.17,4.27,1.08,3.43-.83,7.09-4.26,8.17Z" fill="#d3df45"/>
    <path d="M88.26,66.54c-2.39-7.59-10.48-11.82-18.08-9.43-7.59,2.39-11.82,10.48-9.43,18.08,2.39,7.59,10.48,11.82,18.08,9.43,7.59-2.39,11.82-10.48,9.43-18.08ZM76.46,77.08c-3.43,1.08-7.09-.83-8.18-4.26-1.08-3.43.83-7.09,4.27-8.18,3.43-1.08,7.09.83,8.17,4.27,1.08,3.43-.83,7.09-4.26,8.17Z" fill="#d3df45"/>
    <path d="M88.26,66.54c-2.39-7.59-10.48-11.82-18.08-9.43-7.59,2.39-11.82,10.48-9.43,18.08,2.39,7.59,10.48,11.82,18.08,9.43,7.59-2.39,11.82-10.48,9.43-18.08ZM76.46,77.08c-3.43,1.08-7.09-.83-8.18-4.26-1.08-3.43.83-7.09,4.27-8.18,3.43-1.08,7.09.83,8.17,4.27,1.08,3.43-.83,7.09-4.26,8.17Z" fill="#d3df45"/>
  </g>
</svg>