<?xml version="1.0" encoding="UTF-8"?>
<svg id="_图层_1" data-name="图层_1" xmlns="http://www.w3.org/2000/svg" version="1.1" viewBox="0 0 141.7 141.7">
  <!-- Generator: Adobe Illustrator 29.8.4, SVG Export Plug-In . SVG Version: 2.1.1 Build 6)  -->
  <defs>
    <style>
      .st0 {
        fill: #8e71b1;
      }
    </style>
  </defs>
  <polygon class="st0" points="118.8 36.3 112.7 13.8 106.3 45.4 138.3 49.1 118.8 36.3"/>
  <polygon class="st0" points="89.3 14.8 71.1 .1 84.6 29.4 112.7 13.7 89.3 14.8"/>
  <polygon class="st0" points="52.8 14.6 29.5 13.5 57.6 29.3 71 0 52.8 14.6"/>
  <polygon class="st0" points="23.2 36 3.7 48.8 35.6 45 29.4 13.4 23.2 36"/>
  <polygon class="st0" points="11.8 70.6 3.5 92.5 27.2 70.7 3.5 48.8 11.8 70.6"/>
  <polygon class="st0" points="23 105.4 29.1 127.9 35.4 96.4 3.4 92.6 23 105.4"/>
  <polygon class="st0" points="52.4 127 70.6 141.6 57.2 112.3 29.1 128.1 52.4 127"/>
  <polygon class="st0" points="88.9 127.1 112.2 128.3 84.2 112.5 70.7 141.7 88.9 127.1"/>
  <polygon class="st0" points="118.5 105.7 138.1 93 106.1 96.7 112.4 128.3 118.5 105.7"/>
  <polygon class="st0" points="129.9 71.1 138.2 49.3 114.5 71.1 138.2 92.9 129.9 71.1"/>
  <g>
    <path class="st0" d="M87.2,65.7c-2.8-9-12.5-14.1-21.5-11.2-9,2.8-14.1,12.5-11.2,21.5,2.8,9,12.5,14.1,21.5,11.2,9-2.8,14.1-12.5,11.2-21.5ZM73.2,78.3c-4.1,1.3-8.4-1-9.7-5.1-1.3-4.1,1-8.4,5.1-9.7,4.1-1.3,8.4,1,9.7,5.1,1.3,4.1-1,8.4-5.1,9.7ZM87.2,65.7c-2.8-9-12.5-14.1-21.5-11.2-9,2.8-14.1,12.5-11.2,21.5,2.8,9,12.5,14.1,21.5,11.2,9-2.8,14.1-12.5,11.2-21.5ZM73.2,78.3c-4.1,1.3-8.4-1-9.7-5.1-1.3-4.1,1-8.4,5.1-9.7,4.1-1.3,8.4,1,9.7,5.1,1.3,4.1-1,8.4-5.1,9.7ZM87.2,65.7c-2.8-9-12.5-14.1-21.5-11.2-9,2.8-14.1,12.5-11.2,21.5,2.8,9,12.5,14.1,21.5,11.2,9-2.8,14.1-12.5,11.2-21.5ZM73.2,78.3c-4.1,1.3-8.4-1-9.7-5.1-1.3-4.1,1-8.4,5.1-9.7,4.1-1.3,8.4,1,9.7,5.1,1.3,4.1-1,8.4-5.1,9.7ZM87.2,65.7c-2.8-9-12.5-14.1-21.5-11.2-9,2.8-14.1,12.5-11.2,21.5,2.8,9,12.5,14.1,21.5,11.2,9-2.8,14.1-12.5,11.2-21.5ZM73.2,78.3c-4.1,1.3-8.4-1-9.7-5.1-1.3-4.1,1-8.4,5.1-9.7,4.1-1.3,8.4,1,9.7,5.1,1.3,4.1-1,8.4-5.1,9.7ZM87.2,65.7c-2.8-9-12.5-14.1-21.5-11.2-9,2.8-14.1,12.5-11.2,21.5,2.8,9,12.5,14.1,21.5,11.2,9-2.8,14.1-12.5,11.2-21.5ZM73.2,78.3c-4.1,1.3-8.4-1-9.7-5.1-1.3-4.1,1-8.4,5.1-9.7,4.1-1.3,8.4,1,9.7,5.1,1.3,4.1-1,8.4-5.1,9.7ZM87.2,65.7c-2.8-9-12.5-14.1-21.5-11.2-9,2.8-14.1,12.5-11.2,21.5,2.8,9,12.5,14.1,21.5,11.2,9-2.8,14.1-12.5,11.2-21.5ZM73.2,78.3c-4.1,1.3-8.4-1-9.7-5.1-1.3-4.1,1-8.4,5.1-9.7,4.1-1.3,8.4,1,9.7,5.1,1.3,4.1-1,8.4-5.1,9.7ZM87.2,65.7c-2.8-9-12.5-14.1-21.5-11.2-9,2.8-14.1,12.5-11.2,21.5,2.8,9,12.5,14.1,21.5,11.2,9-2.8,14.1-12.5,11.2-21.5ZM73.2,78.3c-4.1,1.3-8.4-1-9.7-5.1-1.3-4.1,1-8.4,5.1-9.7,4.1-1.3,8.4,1,9.7,5.1,1.3,4.1-1,8.4-5.1,9.7ZM87.2,65.7c-2.8-9-12.5-14.1-21.5-11.2-9,2.8-14.1,12.5-11.2,21.5,2.8,9,12.5,14.1,21.5,11.2,9-2.8,14.1-12.5,11.2-21.5ZM73.2,78.3c-4.1,1.3-8.4-1-9.7-5.1-1.3-4.1,1-8.4,5.1-9.7,4.1-1.3,8.4,1,9.7,5.1,1.3,4.1-1,8.4-5.1,9.7ZM87.2,65.7c-2.8-9-12.5-14.1-21.5-11.2-9,2.8-14.1,12.5-11.2,21.5,2.8,9,12.5,14.1,21.5,11.2,9-2.8,14.1-12.5,11.2-21.5ZM73.2,78.3c-4.1,1.3-8.4-1-9.7-5.1-1.3-4.1,1-8.4,5.1-9.7,4.1-1.3,8.4,1,9.7,5.1,1.3,4.1-1,8.4-5.1,9.7ZM87.2,65.7c-2.8-9-12.5-14.1-21.5-11.2-9,2.8-14.1,12.5-11.2,21.5,2.8,9,12.5,14.1,21.5,11.2,9-2.8,14.1-12.5,11.2-21.5ZM73.2,78.3c-4.1,1.3-8.4-1-9.7-5.1-1.3-4.1,1-8.4,5.1-9.7,4.1-1.3,8.4,1,9.7,5.1,1.3,4.1-1,8.4-5.1,9.7ZM87.2,65.7c-2.8-9-12.5-14.1-21.5-11.2-9,2.8-14.1,12.5-11.2,21.5,2.8,9,12.5,14.1,21.5,11.2,9-2.8,14.1-12.5,11.2-21.5ZM73.2,78.3c-4.1,1.3-8.4-1-9.7-5.1-1.3-4.1,1-8.4,5.1-9.7,4.1-1.3,8.4,1,9.7,5.1,1.3,4.1-1,8.4-5.1,9.7ZM87.2,65.7c-2.8-9-12.5-14.1-21.5-11.2-9,2.8-14.1,12.5-11.2,21.5,2.8,9,12.5,14.1,21.5,11.2,9-2.8,14.1-12.5,11.2-21.5ZM73.2,78.3c-4.1,1.3-8.4-1-9.7-5.1-1.3-4.1,1-8.4,5.1-9.7,4.1-1.3,8.4,1,9.7,5.1,1.3,4.1-1,8.4-5.1,9.7ZM87.2,65.7c-2.8-9-12.5-14.1-21.5-11.2-9,2.8-14.1,12.5-11.2,21.5,2.8,9,12.5,14.1,21.5,11.2,9-2.8,14.1-12.5,11.2-21.5ZM73.2,78.3c-4.1,1.3-8.4-1-9.7-5.1-1.3-4.1,1-8.4,5.1-9.7,4.1-1.3,8.4,1,9.7,5.1,1.3,4.1-1,8.4-5.1,9.7ZM87.2,65.7c-2.8-9-12.5-14.1-21.5-11.2-9,2.8-14.1,12.5-11.2,21.5,2.8,9,12.5,14.1,21.5,11.2,9-2.8,14.1-12.5,11.2-21.5ZM73.2,78.3c-4.1,1.3-8.4-1-9.7-5.1-1.3-4.1,1-8.4,5.1-9.7,4.1-1.3,8.4,1,9.7,5.1,1.3,4.1-1,8.4-5.1,9.7ZM87.2,65.7c-2.8-9-12.5-14.1-21.5-11.2-9,2.8-14.1,12.5-11.2,21.5,2.8,9,12.5,14.1,21.5,11.2,9-2.8,14.1-12.5,11.2-21.5ZM73.2,78.3c-4.1,1.3-8.4-1-9.7-5.1-1.3-4.1,1-8.4,5.1-9.7,4.1-1.3,8.4,1,9.7,5.1,1.3,4.1-1,8.4-5.1,9.7ZM87.2,65.7c-2.8-9-12.5-14.1-21.5-11.2-9,2.8-14.1,12.5-11.2,21.5,2.8,9,12.5,14.1,21.5,11.2,9-2.8,14.1-12.5,11.2-21.5ZM73.2,78.3c-4.1,1.3-8.4-1-9.7-5.1-1.3-4.1,1-8.4,5.1-9.7,4.1-1.3,8.4,1,9.7,5.1,1.3,4.1-1,8.4-5.1,9.7ZM87.2,65.7c-2.8-9-12.5-14.1-21.5-11.2-9,2.8-14.1,12.5-11.2,21.5,2.8,9,12.5,14.1,21.5,11.2,9-2.8,14.1-12.5,11.2-21.5ZM73.2,78.3c-4.1,1.3-8.4-1-9.7-5.1-1.3-4.1,1-8.4,5.1-9.7,4.1-1.3,8.4,1,9.7,5.1,1.3,4.1-1,8.4-5.1,9.7ZM87.2,65.7c-2.8-9-12.5-14.1-21.5-11.2-9,2.8-14.1,12.5-11.2,21.5,2.8,9,12.5,14.1,21.5,11.2,9-2.8,14.1-12.5,11.2-21.5ZM73.2,78.3c-4.1,1.3-8.4-1-9.7-5.1-1.3-4.1,1-8.4,5.1-9.7,4.1-1.3,8.4,1,9.7,5.1,1.3,4.1-1,8.4-5.1,9.7ZM87.2,65.7c-2.8-9-12.5-14.1-21.5-11.2-9,2.8-14.1,12.5-11.2,21.5,2.8,9,12.5,14.1,21.5,11.2,9-2.8,14.1-12.5,11.2-21.5ZM73.2,78.3c-4.1,1.3-8.4-1-9.7-5.1-1.3-4.1,1-8.4,5.1-9.7,4.1-1.3,8.4,1,9.7,5.1,1.3,4.1-1,8.4-5.1,9.7ZM87.2,65.7c-2.8-9-12.5-14.1-21.5-11.2-9,2.8-14.1,12.5-11.2,21.5,2.8,9,12.5,14.1,21.5,11.2,9-2.8,14.1-12.5,11.2-21.5ZM73.2,78.3c-4.1,1.3-8.4-1-9.7-5.1-1.3-4.1,1-8.4,5.1-9.7,4.1-1.3,8.4,1,9.7,5.1,1.3,4.1-1,8.4-5.1,9.7ZM117.6,46.7l-9-12.5-5.5-7.5-8.7-2.8-14.6-4.8-8.9-2.9-8.7,2.8-14.7,4.7-8.9,2.9-5.4,7.4-9.1,12.4h0s-5.5,7.5-5.5,7.5v9.1s0,15.4,0,15.4v9.3s5.3,7.4,5.3,7.4l9,12.5,5.5,7.5,8.7,2.8,14.6,4.8,8.8,2.9,8.7-2.8h0l14.6-4.7h0l8.9-2.9,5.4-7.4,9.1-12.4h0s5.5-7.5,5.5-7.5v-9.1s0-15.4,0-15.4v-9.3s-5.3-7.4-5.3-7.4ZM34.2,51.6c2.2,2.1,3,5.2,2.1,8.1-.9,2.9-3.4,4.9-6.4,5.3-1.9-3.1-3.8-6.2-5.8-9.3,3.4-1.4,6.7-2.8,10.1-4.1ZM34.3,90.3c-3.4-1.4-6.8-2.7-10.1-4.1,1.9-3.1,3.8-6.2,5.7-9.3,3,.4,5.5,2.4,6.5,5.3.9,2.9.1,6-2,8.1ZM99.7,31.1c.3,3.6.5,7.2.8,10.8-2.6,1.5-5.9,1.3-8.4-.5-2.4-1.8-3.7-4.8-3.1-7.7,3.5-.9,7.1-1.7,10.6-2.6ZM70.8,21.8c2.3,2.8,4.7,5.5,7,8.3-1.3,2.7-4,4.5-7,4.5-3,0-5.8-1.7-7.1-4.4,2.4-2.8,4.7-5.6,7.1-8.4ZM41.9,31.2c3.5.8,7,1.7,10.6,2.6.6,3-.6,6-3,7.8-2.4,1.8-5.7,2-8.3.5.3-3.6.5-7.3.8-10.9ZM42.1,110.7c-.3-3.6-.5-7.2-.8-10.8,2.6-1.5,5.9-1.3,8.3.5,2.4,1.8,3.7,4.8,3.1,7.7-3.5.9-7.1,1.8-10.6,2.6ZM71,120c-2.4-2.8-4.7-5.5-7-8.3,1.3-2.7,4-4.5,7-4.5,3,0,5.8,1.7,7.1,4.4-2.3,2.8-4.7,5.6-7,8.4ZM99.8,110.5c-3.5-.9-7-1.7-10.6-2.6-.6-3,.6-6,3-7.8,2.4-1.8,5.7-2,8.3-.5-.3,3.6-.5,7.3-.8,10.9ZM70.8,101.8c-17.1,0-30.9-13.9-30.9-31,0-17.1,13.9-30.9,31-30.9,17.1,0,30.9,13.9,30.9,31,0,17.1-13.9,30.9-31,30.9ZM107.4,51.5c3.4,1.4,6.8,2.7,10.1,4.1-1.9,3.1-3.8,6.2-5.7,9.3-3-.4-5.5-2.4-6.5-5.3-.9-2.9-.1-6,2.1-8.1ZM107.6,90.1c-2.2-2.1-3-5.2-2.1-8.1.9-2.9,3.4-5,6.4-5.3,1.9,3.1,3.9,6.2,5.8,9.3-3.4,1.4-6.7,2.8-10.1,4.1ZM65.7,54.5c-9,2.8-14.1,12.5-11.2,21.5,2.8,9,12.5,14.1,21.5,11.2,9-2.8,14.1-12.5,11.2-21.5-2.8-9-12.5-14.1-21.5-11.2ZM73.2,78.3c-4.1,1.3-8.4-1-9.7-5.1-1.3-4.1,1-8.4,5.1-9.7,4.1-1.3,8.4,1,9.7,5.1,1.3,4.1-1,8.4-5.1,9.7ZM87.2,65.7c-2.8-9-12.5-14.1-21.5-11.2-9,2.8-14.1,12.5-11.2,21.5,2.8,9,12.5,14.1,21.5,11.2,9-2.8,14.1-12.5,11.2-21.5ZM73.2,78.3c-4.1,1.3-8.4-1-9.7-5.1-1.3-4.1,1-8.4,5.1-9.7,4.1-1.3,8.4,1,9.7,5.1,1.3,4.1-1,8.4-5.1,9.7ZM87.2,65.7c-2.8-9-12.5-14.1-21.5-11.2-9,2.8-14.1,12.5-11.2,21.5,2.8,9,12.5,14.1,21.5,11.2,9-2.8,14.1-12.5,11.2-21.5ZM73.2,78.3c-4.1,1.3-8.4-1-9.7-5.1-1.3-4.1,1-8.4,5.1-9.7,4.1-1.3,8.4,1,9.7,5.1,1.3,4.1-1,8.4-5.1,9.7ZM87.2,65.7c-2.8-9-12.5-14.1-21.5-11.2-9,2.8-14.1,12.5-11.2,21.5,2.8,9,12.5,14.1,21.5,11.2,9-2.8,14.1-12.5,11.2-21.5ZM73.2,78.3c-4.1,1.3-8.4-1-9.7-5.1-1.3-4.1,1-8.4,5.1-9.7,4.1-1.3,8.4,1,9.7,5.1,1.3,4.1-1,8.4-5.1,9.7ZM87.2,65.7c-2.8-9-12.5-14.1-21.5-11.2-9,2.8-14.1,12.5-11.2,21.5,2.8,9,12.5,14.1,21.5,11.2,9-2.8,14.1-12.5,11.2-21.5ZM73.2,78.3c-4.1,1.3-8.4-1-9.7-5.1-1.3-4.1,1-8.4,5.1-9.7,4.1-1.3,8.4,1,9.7,5.1,1.3,4.1-1,8.4-5.1,9.7ZM87.2,65.7c-2.8-9-12.5-14.1-21.5-11.2-9,2.8-14.1,12.5-11.2,21.5,2.8,9,12.5,14.1,21.5,11.2,9-2.8,14.1-12.5,11.2-21.5ZM73.2,78.3c-4.1,1.3-8.4-1-9.7-5.1-1.3-4.1,1-8.4,5.1-9.7,4.1-1.3,8.4,1,9.7,5.1,1.3,4.1-1,8.4-5.1,9.7ZM87.2,65.7c-2.8-9-12.5-14.1-21.5-11.2-9,2.8-14.1,12.5-11.2,21.5,2.8,9,12.5,14.1,21.5,11.2,9-2.8,14.1-12.5,11.2-21.5ZM73.2,78.3c-4.1,1.3-8.4-1-9.7-5.1-1.3-4.1,1-8.4,5.1-9.7,4.1-1.3,8.4,1,9.7,5.1,1.3,4.1-1,8.4-5.1,9.7ZM87.2,65.7c-2.8-9-12.5-14.1-21.5-11.2-9,2.8-14.1,12.5-11.2,21.5,2.8,9,12.5,14.1,21.5,11.2,9-2.8,14.1-12.5,11.2-21.5ZM73.2,78.3c-4.1,1.3-8.4-1-9.7-5.1-1.3-4.1,1-8.4,5.1-9.7,4.1-1.3,8.4,1,9.7,5.1,1.3,4.1-1,8.4-5.1,9.7ZM87.2,65.7c-2.8-9-12.5-14.1-21.5-11.2-9,2.8-14.1,12.5-11.2,21.5,2.8,9,12.5,14.1,21.5,11.2,9-2.8,14.1-12.5,11.2-21.5ZM73.2,78.3c-4.1,1.3-8.4-1-9.7-5.1-1.3-4.1,1-8.4,5.1-9.7,4.1-1.3,8.4,1,9.7,5.1,1.3,4.1-1,8.4-5.1,9.7ZM87.2,65.7c-2.8-9-12.5-14.1-21.5-11.2-9,2.8-14.1,12.5-11.2,21.5,2.8,9,12.5,14.1,21.5,11.2,9-2.8,14.1-12.5,11.2-21.5ZM73.2,78.3c-4.1,1.3-8.4-1-9.7-5.1-1.3-4.1,1-8.4,5.1-9.7,4.1-1.3,8.4,1,9.7,5.1,1.3,4.1-1,8.4-5.1,9.7ZM87.2,65.7c-2.8-9-12.5-14.1-21.5-11.2-9,2.8-14.1,12.5-11.2,21.5,2.8,9,12.5,14.1,21.5,11.2,9-2.8,14.1-12.5,11.2-21.5ZM73.2,78.3c-4.1,1.3-8.4-1-9.7-5.1-1.3-4.1,1-8.4,5.1-9.7,4.1-1.3,8.4,1,9.7,5.1,1.3,4.1-1,8.4-5.1,9.7ZM87.2,65.7c-2.8-9-12.5-14.1-21.5-11.2-9,2.8-14.1,12.5-11.2,21.5,2.8,9,12.5,14.1,21.5,11.2,9-2.8,14.1-12.5,11.2-21.5ZM73.2,78.3c-4.1,1.3-8.4-1-9.7-5.1-1.3-4.1,1-8.4,5.1-9.7,4.1-1.3,8.4,1,9.7,5.1,1.3,4.1-1,8.4-5.1,9.7ZM87.2,65.7c-2.8-9-12.5-14.1-21.5-11.2-9,2.8-14.1,12.5-11.2,21.5,2.8,9,12.5,14.1,21.5,11.2,9-2.8,14.1-12.5,11.2-21.5ZM73.2,78.3c-4.1,1.3-8.4-1-9.7-5.1-1.3-4.1,1-8.4,5.1-9.7,4.1-1.3,8.4,1,9.7,5.1,1.3,4.1-1,8.4-5.1,9.7ZM87.2,65.7c-2.8-9-12.5-14.1-21.5-11.2-9,2.8-14.1,12.5-11.2,21.5,2.8,9,12.5,14.1,21.5,11.2,9-2.8,14.1-12.5,11.2-21.5ZM73.2,78.3c-4.1,1.3-8.4-1-9.7-5.1-1.3-4.1,1-8.4,5.1-9.7,4.1-1.3,8.4,1,9.7,5.1,1.3,4.1-1,8.4-5.1,9.7ZM87.2,65.7c-2.8-9-12.5-14.1-21.5-11.2-9,2.8-14.1,12.5-11.2,21.5,2.8,9,12.5,14.1,21.5,11.2,9-2.8,14.1-12.5,11.2-21.5ZM73.2,78.3c-4.1,1.3-8.4-1-9.7-5.1-1.3-4.1,1-8.4,5.1-9.7,4.1-1.3,8.4,1,9.7,5.1,1.3,4.1-1,8.4-5.1,9.7ZM87.2,65.7c-2.8-9-12.5-14.1-21.5-11.2-9,2.8-14.1,12.5-11.2,21.5,2.8,9,12.5,14.1,21.5,11.2,9-2.8,14.1-12.5,11.2-21.5ZM73.2,78.3c-4.1,1.3-8.4-1-9.7-5.1-1.3-4.1,1-8.4,5.1-9.7,4.1-1.3,8.4,1,9.7,5.1,1.3,4.1-1,8.4-5.1,9.7ZM87.2,65.7c-2.8-9-12.5-14.1-21.5-11.2-9,2.8-14.1,12.5-11.2,21.5,2.8,9,12.5,14.1,21.5,11.2,9-2.8,14.1-12.5,11.2-21.5ZM73.2,78.3c-4.1,1.3-8.4-1-9.7-5.1-1.3-4.1,1-8.4,5.1-9.7,4.1-1.3,8.4,1,9.7,5.1,1.3,4.1-1,8.4-5.1,9.7ZM87.2,65.7c-2.8-9-12.5-14.1-21.5-11.2-9,2.8-14.1,12.5-11.2,21.5,2.8,9,12.5,14.1,21.5,11.2,9-2.8,14.1-12.5,11.2-21.5ZM73.2,78.3c-4.1,1.3-8.4-1-9.7-5.1-1.3-4.1,1-8.4,5.1-9.7,4.1-1.3,8.4,1,9.7,5.1,1.3,4.1-1,8.4-5.1,9.7ZM87.2,65.7c-2.8-9-12.5-14.1-21.5-11.2-9,2.8-14.1,12.5-11.2,21.5,2.8,9,12.5,14.1,21.5,11.2,9-2.8,14.1-12.5,11.2-21.5ZM73.2,78.3c-4.1,1.3-8.4-1-9.7-5.1-1.3-4.1,1-8.4,5.1-9.7,4.1-1.3,8.4,1,9.7,5.1,1.3,4.1-1,8.4-5.1,9.7Z"/>
    <path class="st0" d="M87.2,65.7c-2.8-9-12.5-14.1-21.5-11.2-9,2.8-14.1,12.5-11.2,21.5,2.8,9,12.5,14.1,21.5,11.2,9-2.8,14.1-12.5,11.2-21.5ZM73.2,78.3c-4.1,1.3-8.4-1-9.7-5.1-1.3-4.1,1-8.4,5.1-9.7,4.1-1.3,8.4,1,9.7,5.1,1.3,4.1-1,8.4-5.1,9.7Z"/>
    <path class="st0" d="M87.2,65.7c-2.8-9-12.5-14.1-21.5-11.2-9,2.8-14.1,12.5-11.2,21.5,2.8,9,12.5,14.1,21.5,11.2,9-2.8,14.1-12.5,11.2-21.5ZM73.2,78.3c-4.1,1.3-8.4-1-9.7-5.1-1.3-4.1,1-8.4,5.1-9.7,4.1-1.3,8.4,1,9.7,5.1,1.3,4.1-1,8.4-5.1,9.7Z"/>
  </g>
</svg>