<?xml version="1.0" encoding="UTF-8"?>
<svg id="a" data-name="图层 1" xmlns="http://www.w3.org/2000/svg" viewBox="0 0 141.73 141.73">
  <polygon points="111.11 41.86 105.98 22.91 100.66 49.43 127.53 52.62 111.11 41.86" fill="#8e71b1"/>
  <polygon points="86.37 23.74 71.09 11.42 82.37 36.01 105.98 22.8 86.37 23.74" fill="#8e71b1"/>
  <polygon points="55.71 23.63 36.1 22.65 59.69 35.91 71.02 11.34 55.71 23.63" fill="#8e71b1"/>
  <polygon points="30.84 41.56 14.4 52.29 41.27 49.16 36 22.62 30.84 41.56" fill="#8e71b1"/>
  <polygon points="21.26 70.69 14.26 89.03 34.16 70.7 14.3 52.33 21.26 70.69" fill="#8e71b1"/>
  <polygon points="30.62 99.88 35.75 118.83 41.07 92.3 14.21 89.12 30.62 99.88" fill="#8e71b1"/>
  <polygon points="55.36 117.99 70.65 130.31 59.36 105.72 35.75 118.94 55.36 117.99" fill="#8e71b1"/>
  <polygon points="86.02 118.11 105.63 119.09 82.05 105.83 70.71 130.4 86.02 118.11" fill="#8e71b1"/>
  <polygon points="110.89 100.17 127.33 89.45 100.46 92.58 105.73 119.12 110.89 100.17" fill="#8e71b1"/>
  <polygon points="120.48 71.05 127.47 52.71 107.57 71.04 127.43 89.41 120.48 71.05" fill="#8e71b1"/>
  <g>
    <path d="M84.62,66.54c-2.39-7.59-10.48-11.82-18.08-9.43-7.59,2.39-11.82,10.48-9.43,18.08,2.39,7.59,10.48,11.82,18.08,9.43,7.59-2.39,11.82-10.48,9.43-18.08ZM72.82,77.08c-3.43,1.08-7.09-.83-8.18-4.26-1.08-3.43.83-7.09,4.27-8.18,3.43-1.08,7.09.83,8.17,4.27,1.08,3.43-.83,7.09-4.26,8.17ZM84.62,66.54c-2.39-7.59-10.48-11.82-18.08-9.43-7.59,2.39-11.82,10.48-9.43,18.08,2.39,7.59,10.48,11.82,18.08,9.43,7.59-2.39,11.82-10.48,9.43-18.08ZM72.82,77.08c-3.43,1.08-7.09-.83-8.18-4.26-1.08-3.43.83-7.09,4.27-8.18,3.43-1.08,7.09.83,8.17,4.27,1.08,3.43-.83,7.09-4.26,8.17ZM84.62,66.54c-2.39-7.59-10.48-11.82-18.08-9.43-7.59,2.39-11.82,10.48-9.43,18.08,2.39,7.59,10.48,11.82,18.08,9.43,7.59-2.39,11.82-10.48,9.43-18.08ZM72.82,77.08c-3.43,1.08-7.09-.83-8.18-4.26-1.08-3.43.83-7.09,4.27-8.18,3.43-1.08,7.09.83,8.17,4.27,1.08,3.43-.83,7.09-4.26,8.17ZM84.62,66.54c-2.39-7.59-10.48-11.82-18.08-9.43-7.59,2.39-11.82,10.48-9.43,18.08,2.39,7.59,10.48,11.82,18.08,9.43,7.59-2.39,11.82-10.48,9.43-18.08ZM72.82,77.08c-3.43,1.08-7.09-.83-8.18-4.26-1.08-3.43.83-7.09,4.27-8.18,3.43-1.08,7.09.83,8.17,4.27,1.08,3.43-.83,7.09-4.26,8.17ZM84.62,66.54c-2.39-7.59-10.48-11.82-18.08-9.43-7.59,2.39-11.82,10.48-9.43,18.08,2.39,7.59,10.48,11.82,18.08,9.43,7.59-2.39,11.82-10.48,9.43-18.08ZM72.82,77.08c-3.43,1.08-7.09-.83-8.18-4.26-1.08-3.43.83-7.09,4.27-8.18,3.43-1.08,7.09.83,8.17,4.27,1.08,3.43-.83,7.09-4.26,8.17ZM84.62,66.54c-2.39-7.59-10.48-11.82-18.08-9.43-7.59,2.39-11.82,10.48-9.43,18.08,2.39,7.59,10.48,11.82,18.08,9.43,7.59-2.39,11.82-10.48,9.43-18.08ZM72.82,77.08c-3.43,1.08-7.09-.83-8.18-4.26-1.08-3.43.83-7.09,4.27-8.18,3.43-1.08,7.09.83,8.17,4.27,1.08,3.43-.83,7.09-4.26,8.17ZM84.62,66.54c-2.39-7.59-10.48-11.82-18.08-9.43-7.59,2.39-11.82,10.48-9.43,18.08,2.39,7.59,10.48,11.82,18.08,9.43,7.59-2.39,11.82-10.48,9.43-18.08ZM72.82,77.08c-3.43,1.08-7.09-.83-8.18-4.26-1.08-3.43.83-7.09,4.27-8.18,3.43-1.08,7.09.83,8.17,4.27,1.08,3.43-.83,7.09-4.26,8.17ZM84.62,66.54c-2.39-7.59-10.48-11.82-18.08-9.43-7.59,2.39-11.82,10.48-9.43,18.08,2.39,7.59,10.48,11.82,18.08,9.43,7.59-2.39,11.82-10.48,9.43-18.08ZM72.82,77.08c-3.43,1.08-7.09-.83-8.18-4.26-1.08-3.43.83-7.09,4.27-8.18,3.43-1.08,7.09.83,8.17,4.27,1.08,3.43-.83,7.09-4.26,8.17ZM84.62,66.54c-2.39-7.59-10.48-11.82-18.08-9.43-7.59,2.39-11.82,10.48-9.43,18.08,2.39,7.59,10.48,11.82,18.08,9.43,7.59-2.39,11.82-10.48,9.43-18.08ZM72.82,77.08c-3.43,1.08-7.09-.83-8.18-4.26-1.08-3.43.83-7.09,4.27-8.18,3.43-1.08,7.09.83,8.17,4.27,1.08,3.43-.83,7.09-4.26,8.17ZM84.62,66.54c-2.39-7.59-10.48-11.82-18.08-9.43-7.59,2.39-11.82,10.48-9.43,18.08,2.39,7.59,10.48,11.82,18.08,9.43,7.59-2.39,11.82-10.48,9.43-18.08ZM72.82,77.08c-3.43,1.08-7.09-.83-8.18-4.26-1.08-3.43.83-7.09,4.27-8.18,3.43-1.08,7.09.83,8.17,4.27,1.08,3.43-.83,7.09-4.26,8.17ZM84.62,66.54c-2.39-7.59-10.48-11.82-18.08-9.43-7.59,2.39-11.82,10.48-9.43,18.08,2.39,7.59,10.48,11.82,18.08,9.43,7.59-2.39,11.82-10.48,9.43-18.08ZM72.82,77.08c-3.43,1.08-7.09-.83-8.18-4.26-1.08-3.43.83-7.09,4.27-8.18,3.43-1.08,7.09.83,8.17,4.27,1.08,3.43-.83,7.09-4.26,8.17ZM84.62,66.54c-2.39-7.59-10.48-11.82-18.08-9.43-7.59,2.39-11.82,10.48-9.43,18.08,2.39,7.59,10.48,11.82,18.08,9.43,7.59-2.39,11.82-10.48,9.43-18.08ZM72.82,77.08c-3.43,1.08-7.09-.83-8.18-4.26-1.08-3.43.83-7.09,4.27-8.18,3.43-1.08,7.09.83,8.17,4.27,1.08,3.43-.83,7.09-4.26,8.17ZM84.62,66.54c-2.39-7.59-10.48-11.82-18.08-9.43-7.59,2.39-11.82,10.48-9.43,18.08,2.39,7.59,10.48,11.82,18.08,9.43,7.59-2.39,11.82-10.48,9.43-18.08ZM72.82,77.08c-3.43,1.08-7.09-.83-8.18-4.26-1.08-3.43.83-7.09,4.27-8.18,3.43-1.08,7.09.83,8.17,4.27,1.08,3.43-.83,7.09-4.26,8.17ZM84.62,66.54c-2.39-7.59-10.48-11.82-18.08-9.43-7.59,2.39-11.82,10.48-9.43,18.08,2.39,7.59,10.48,11.82,18.08,9.43,7.59-2.39,11.82-10.48,9.43-18.08ZM72.82,77.08c-3.43,1.08-7.09-.83-8.18-4.26-1.08-3.43.83-7.09,4.27-8.18,3.43-1.08,7.09.83,8.17,4.27,1.08,3.43-.83,7.09-4.26,8.17ZM84.62,66.54c-2.39-7.59-10.48-11.82-18.08-9.43-7.59,2.39-11.82,10.48-9.43,18.08,2.39,7.59,10.48,11.82,18.08,9.43,7.59-2.39,11.82-10.48,9.43-18.08ZM72.82,77.08c-3.43,1.08-7.09-.83-8.18-4.26-1.08-3.43.83-7.09,4.27-8.18,3.43-1.08,7.09.83,8.17,4.27,1.08,3.43-.83,7.09-4.26,8.17ZM84.62,66.54c-2.39-7.59-10.48-11.82-18.08-9.43-7.59,2.39-11.82,10.48-9.43,18.08,2.39,7.59,10.48,11.82,18.08,9.43,7.59-2.39,11.82-10.48,9.43-18.08ZM72.82,77.08c-3.43,1.08-7.09-.83-8.18-4.26-1.08-3.43.83-7.09,4.27-8.18,3.43-1.08,7.09.83,8.17,4.27,1.08,3.43-.83,7.09-4.26,8.17ZM84.62,66.54c-2.39-7.59-10.48-11.82-18.08-9.43-7.59,2.39-11.82,10.48-9.43,18.08,2.39,7.59,10.48,11.82,18.08,9.43,7.59-2.39,11.82-10.48,9.43-18.08ZM72.82,77.08c-3.43,1.08-7.09-.83-8.18-4.26-1.08-3.43.83-7.09,4.27-8.18,3.43-1.08,7.09.83,8.17,4.27,1.08,3.43-.83,7.09-4.26,8.17ZM84.62,66.54c-2.39-7.59-10.48-11.82-18.08-9.43-7.59,2.39-11.82,10.48-9.43,18.08,2.39,7.59,10.48,11.82,18.08,9.43,7.59-2.39,11.82-10.48,9.43-18.08ZM72.82,77.08c-3.43,1.08-7.09-.83-8.18-4.26-1.08-3.43.83-7.09,4.27-8.18,3.43-1.08,7.09.83,8.17,4.27,1.08,3.43-.83,7.09-4.26,8.17ZM84.62,66.54c-2.39-7.59-10.48-11.82-18.08-9.43-7.59,2.39-11.82,10.48-9.43,18.08,2.39,7.59,10.48,11.82,18.08,9.43,7.59-2.39,11.82-10.48,9.43-18.08ZM72.82,77.08c-3.43,1.08-7.09-.83-8.18-4.26-1.08-3.43.83-7.09,4.27-8.18,3.43-1.08,7.09.83,8.17,4.27,1.08,3.43-.83,7.09-4.26,8.17ZM84.62,66.54c-2.39-7.59-10.48-11.82-18.08-9.43-7.59,2.39-11.82,10.48-9.43,18.08,2.39,7.59,10.48,11.82,18.08,9.43,7.59-2.39,11.82-10.48,9.43-18.08ZM72.82,77.08c-3.43,1.08-7.09-.83-8.18-4.26-1.08-3.43.83-7.09,4.27-8.18,3.43-1.08,7.09.83,8.17,4.27,1.08,3.43-.83,7.09-4.26,8.17ZM110.12,50.56l-7.58-10.48-4.58-6.34-7.27-2.38-12.3-4.01-7.44-2.44-7.28,2.35-12.31,3.97-7.44,2.4-4.51,6.18-7.62,10.44h0s-4.61,6.32-4.61,6.32l-.02,7.65-.02,12.93-.02,7.83,4.48,6.19,7.58,10.48,4.59,6.34,7.27,2.38,12.3,4.01,7.43,2.43,7.28-2.35h0l12.3-3.97h0l7.44-2.4,4.51-6.18,7.62-10.44h0s4.61-6.32,4.61-6.32l.02-7.66.02-12.93.02-7.82-4.48-6.19ZM40.04,54.72c1.86,1.72,2.56,4.38,1.79,6.8-.78,2.4-2.88,4.15-5.39,4.48-1.61-2.61-3.23-5.2-4.85-7.8,2.82-1.16,5.63-2.31,8.45-3.48ZM40.15,87.17c-2.84-1.16-5.67-2.31-8.51-3.46,1.59-2.59,3.19-5.19,4.78-7.78,2.53.3,4.65,2.04,5.44,4.44.79,2.4.12,5.06-1.72,6.8ZM95.06,37.43c.23,3.04.46,6.08.7,9.11-2.22,1.24-4.96,1.08-7.02-.4-2.05-1.47-3.07-4.01-2.6-6.51,2.97-.73,5.94-1.47,8.92-2.2ZM70.78,29.6c1.97,2.32,3.94,4.64,5.92,6.96-1.06,2.3-3.38,3.79-5.91,3.8-2.53,0-4.85-1.45-5.93-3.73,1.98-2.35,3.95-4.69,5.93-7.03ZM46.54,37.53c2.95.71,5.92,1.43,8.88,2.15.49,2.48-.5,5.04-2.55,6.55-2.04,1.49-4.77,1.67-6.99.46.22-3.06.45-6.11.66-9.16ZM46.68,104.31c-.23-3.04-.46-6.08-.7-9.11,2.21-1.24,4.95-1.08,7.01.4,2.06,1.47,3.07,4.01,2.61,6.5-2.97.74-5.95,1.47-8.92,2.21ZM70.95,112.14c-1.97-2.32-3.94-4.64-5.92-6.96,1.06-2.3,3.38-3.79,5.91-3.8,2.53,0,4.84,1.45,5.93,3.73-1.97,2.35-3.94,4.69-5.92,7.03ZM95.2,104.21c-2.96-.72-5.92-1.43-8.88-2.15-.49-2.49.5-5.05,2.55-6.55,2.04-1.49,4.77-1.68,6.99-.46-.23,3.05-.45,6.11-.66,9.16ZM70.81,96.85c-14.34-.03-25.96-11.68-25.93-26.03.02-14.34,11.68-25.95,26.03-25.93,14.34.02,25.95,11.68,25.93,26.03-.03,14.34-11.68,25.95-26.03,25.93ZM101.58,54.57c2.83,1.16,5.67,2.31,8.51,3.46-1.59,2.59-3.19,5.18-4.79,7.78-2.52-.3-4.65-2.04-5.44-4.44-.79-2.4-.11-5.06,1.72-6.8ZM101.69,87.02c-1.86-1.72-2.56-4.39-1.79-6.8.78-2.4,2.88-4.16,5.38-4.48,1.62,2.6,3.24,5.2,4.86,7.8-2.82,1.16-5.63,2.31-8.45,3.48ZM66.54,57.11c-7.59,2.39-11.82,10.48-9.43,18.08,2.39,7.59,10.48,11.82,18.08,9.43,7.59-2.39,11.82-10.48,9.43-18.08-2.39-7.59-10.48-11.82-18.08-9.43ZM72.82,77.08c-3.43,1.08-7.09-.83-8.18-4.26-1.08-3.43.83-7.09,4.27-8.18,3.43-1.08,7.09.83,8.17,4.27,1.08,3.43-.83,7.09-4.26,8.17ZM84.62,66.54c-2.39-7.59-10.48-11.82-18.08-9.43-7.59,2.39-11.82,10.48-9.43,18.08,2.39,7.59,10.48,11.82,18.08,9.43,7.59-2.39,11.82-10.48,9.43-18.08ZM72.82,77.08c-3.43,1.08-7.09-.83-8.18-4.26-1.08-3.43.83-7.09,4.27-8.18,3.43-1.08,7.09.83,8.17,4.27,1.08,3.43-.83,7.09-4.26,8.17ZM84.62,66.54c-2.39-7.59-10.48-11.82-18.08-9.43-7.59,2.39-11.82,10.48-9.43,18.08,2.39,7.59,10.48,11.82,18.08,9.43,7.59-2.39,11.82-10.48,9.43-18.08ZM72.82,77.08c-3.43,1.08-7.09-.83-8.18-4.26-1.08-3.43.83-7.09,4.27-8.18,3.43-1.08,7.09.83,8.17,4.27,1.08,3.43-.83,7.09-4.26,8.17ZM84.62,66.54c-2.39-7.59-10.48-11.82-18.08-9.43-7.59,2.39-11.82,10.48-9.43,18.08,2.39,7.59,10.48,11.82,18.08,9.43,7.59-2.39,11.82-10.48,9.43-18.08ZM72.82,77.08c-3.43,1.08-7.09-.83-8.18-4.26-1.08-3.43.83-7.09,4.27-8.18,3.43-1.08,7.09.83,8.17,4.27,1.08,3.43-.83,7.09-4.26,8.17ZM84.62,66.54c-2.39-7.59-10.48-11.82-18.08-9.43-7.59,2.39-11.82,10.48-9.43,18.08,2.39,7.59,10.48,11.82,18.08,9.43,7.59-2.39,11.82-10.48,9.43-18.08ZM72.82,77.08c-3.43,1.08-7.09-.83-8.18-4.26-1.08-3.43.83-7.09,4.27-8.18,3.43-1.08,7.09.83,8.17,4.27,1.08,3.43-.83,7.09-4.26,8.17ZM84.62,66.54c-2.39-7.59-10.48-11.82-18.08-9.43-7.59,2.39-11.82,10.48-9.43,18.08,2.39,7.59,10.48,11.82,18.08,9.43,7.59-2.39,11.82-10.48,9.43-18.08ZM72.82,77.08c-3.43,1.08-7.09-.83-8.18-4.26-1.08-3.43.83-7.09,4.27-8.18,3.43-1.08,7.09.83,8.17,4.27,1.08,3.43-.83,7.09-4.26,8.17ZM84.62,66.54c-2.39-7.59-10.48-11.82-18.08-9.43-7.59,2.39-11.82,10.48-9.43,18.08,2.39,7.59,10.48,11.82,18.08,9.43,7.59-2.39,11.82-10.48,9.43-18.08ZM72.82,77.08c-3.43,1.08-7.09-.83-8.18-4.26-1.08-3.43.83-7.09,4.27-8.18,3.43-1.08,7.09.83,8.17,4.27,1.08,3.43-.83,7.09-4.26,8.17ZM84.62,66.54c-2.39-7.59-10.48-11.82-18.08-9.43-7.59,2.39-11.82,10.48-9.43,18.08,2.39,7.59,10.48,11.82,18.08,9.43,7.59-2.39,11.82-10.48,9.43-18.08ZM72.82,77.08c-3.43,1.08-7.09-.83-8.18-4.26-1.08-3.43.83-7.09,4.27-8.18,3.43-1.08,7.09.83,8.17,4.27,1.08,3.43-.83,7.09-4.26,8.17ZM84.62,66.54c-2.39-7.59-10.48-11.82-18.08-9.43-7.59,2.39-11.82,10.48-9.43,18.08,2.39,7.59,10.48,11.82,18.08,9.43,7.59-2.39,11.82-10.48,9.43-18.08ZM72.82,77.08c-3.43,1.08-7.09-.83-8.18-4.26-1.08-3.43.83-7.09,4.27-8.18,3.43-1.08,7.09.83,8.17,4.27,1.08,3.43-.83,7.09-4.26,8.17ZM84.62,66.54c-2.39-7.59-10.48-11.82-18.08-9.43-7.59,2.39-11.82,10.48-9.43,18.08,2.39,7.59,10.48,11.82,18.08,9.43,7.59-2.39,11.82-10.48,9.43-18.08ZM72.82,77.08c-3.43,1.08-7.09-.83-8.18-4.26-1.08-3.43.83-7.09,4.27-8.18,3.43-1.08,7.09.83,8.17,4.27,1.08,3.43-.83,7.09-4.26,8.17ZM84.62,66.54c-2.39-7.59-10.48-11.82-18.08-9.43-7.59,2.39-11.82,10.48-9.43,18.08,2.39,7.59,10.48,11.82,18.08,9.43,7.59-2.39,11.82-10.48,9.43-18.08ZM72.82,77.08c-3.43,1.08-7.09-.83-8.18-4.26-1.08-3.43.83-7.09,4.27-8.18,3.43-1.08,7.09.83,8.17,4.27,1.08,3.43-.83,7.09-4.26,8.17ZM84.62,66.54c-2.39-7.59-10.48-11.82-18.08-9.43-7.59,2.39-11.82,10.48-9.43,18.08,2.39,7.59,10.48,11.82,18.08,9.43,7.59-2.39,11.82-10.48,9.43-18.08ZM72.82,77.08c-3.43,1.08-7.09-.83-8.18-4.26-1.08-3.43.83-7.09,4.27-8.18,3.43-1.08,7.09.83,8.17,4.27,1.08,3.43-.83,7.09-4.26,8.17ZM84.62,66.54c-2.39-7.59-10.48-11.82-18.08-9.43-7.59,2.39-11.82,10.48-9.43,18.08,2.39,7.59,10.48,11.82,18.08,9.43,7.59-2.39,11.82-10.48,9.43-18.08ZM72.82,77.08c-3.43,1.08-7.09-.83-8.18-4.26-1.08-3.43.83-7.09,4.27-8.18,3.43-1.08,7.09.83,8.17,4.27,1.08,3.43-.83,7.09-4.26,8.17ZM84.62,66.54c-2.39-7.59-10.48-11.82-18.08-9.43-7.59,2.39-11.82,10.48-9.43,18.08,2.39,7.59,10.48,11.82,18.08,9.43,7.59-2.39,11.82-10.48,9.43-18.08ZM72.82,77.08c-3.43,1.08-7.09-.83-8.18-4.26-1.08-3.43.83-7.09,4.27-8.18,3.43-1.08,7.09.83,8.17,4.27,1.08,3.43-.83,7.09-4.26,8.17ZM84.62,66.54c-2.39-7.59-10.48-11.82-18.08-9.43-7.59,2.39-11.82,10.48-9.43,18.08,2.39,7.59,10.48,11.82,18.08,9.43,7.59-2.39,11.82-10.48,9.43-18.08ZM72.82,77.08c-3.43,1.08-7.09-.83-8.18-4.26-1.08-3.43.83-7.09,4.27-8.18,3.43-1.08,7.09.83,8.17,4.27,1.08,3.43-.83,7.09-4.26,8.17ZM84.62,66.54c-2.39-7.59-10.48-11.82-18.08-9.43-7.59,2.39-11.82,10.48-9.43,18.08,2.39,7.59,10.48,11.82,18.08,9.43,7.59-2.39,11.82-10.48,9.43-18.08ZM72.82,77.08c-3.43,1.08-7.09-.83-8.18-4.26-1.08-3.43.83-7.09,4.27-8.18,3.43-1.08,7.09.83,8.17,4.27,1.08,3.43-.83,7.09-4.26,8.17ZM84.62,66.54c-2.39-7.59-10.48-11.82-18.08-9.43-7.59,2.39-11.82,10.48-9.43,18.08,2.39,7.59,10.48,11.82,18.08,9.43,7.59-2.39,11.82-10.48,9.43-18.08ZM72.82,77.08c-3.43,1.08-7.09-.83-8.18-4.26-1.08-3.43.83-7.09,4.27-8.18,3.43-1.08,7.09.83,8.17,4.27,1.08,3.43-.83,7.09-4.26,8.17ZM84.62,66.54c-2.39-7.59-10.48-11.82-18.08-9.43-7.59,2.39-11.82,10.48-9.43,18.08,2.39,7.59,10.48,11.82,18.08,9.43,7.59-2.39,11.82-10.48,9.43-18.08ZM72.82,77.08c-3.43,1.08-7.09-.83-8.18-4.26-1.08-3.43.83-7.09,4.27-8.18,3.43-1.08,7.09.83,8.17,4.27,1.08,3.43-.83,7.09-4.26,8.17ZM84.62,66.54c-2.39-7.59-10.48-11.82-18.08-9.43-7.59,2.39-11.82,10.48-9.43,18.08,2.39,7.59,10.48,11.82,18.08,9.43,7.59-2.39,11.82-10.48,9.43-18.08ZM72.82,77.08c-3.43,1.08-7.09-.83-8.18-4.26-1.08-3.43.83-7.09,4.27-8.18,3.43-1.08,7.09.83,8.17,4.27,1.08,3.43-.83,7.09-4.26,8.17Z" fill="#8e71b1"/>
    <path d="M84.62,66.54c-2.39-7.59-10.48-11.82-18.08-9.43-7.59,2.39-11.82,10.48-9.43,18.08,2.39,7.59,10.48,11.82,18.08,9.43,7.59-2.39,11.82-10.48,9.43-18.08ZM72.82,77.08c-3.43,1.08-7.09-.83-8.18-4.26-1.08-3.43.83-7.09,4.27-8.18,3.43-1.08,7.09.83,8.17,4.27,1.08,3.43-.83,7.09-4.26,8.17Z" fill="#8e71b1"/>
    <path d="M84.62,66.54c-2.39-7.59-10.48-11.82-18.08-9.43-7.59,2.39-11.82,10.48-9.43,18.08,2.39,7.59,10.48,11.82,18.08,9.43,7.59-2.39,11.82-10.48,9.43-18.08ZM72.82,77.08c-3.43,1.08-7.09-.83-8.18-4.26-1.08-3.43.83-7.09,4.27-8.18,3.43-1.08,7.09.83,8.17,4.27,1.08,3.43-.83,7.09-4.26,8.17Z" fill="#8e71b1"/>
  </g>
</svg>